<?xml version="1.0" encoding="UTF-8"?>
<svg xmlns="http://www.w3.org/2000/svg" xmlns:xlink="http://www.w3.org/1999/xlink" width="200px" height="54px" viewBox="0 0 201 54" version="1.1">
<g id="surface1">
<path style=" stroke:none;fill-rule:nonzero;fill:rgb(20%,16.078432%,36.862746%);fill-opacity:1;" d="M 179.355469 37.445312 C 177.078125 37.445312 175.070312 36.859375 173.328125 35.679688 C 171.585938 34.503906 170.226562 32.921875 169.257812 30.9375 C 168.285156 28.917969 167.800781 26.648438 167.800781 24.125 C 167.800781 21.5 168.367188 19.160156 169.507812 17.109375 C 170.648438 15.023438 172.253906 13.375 174.332031 12.164062 C 176.441406 10.953125 178.921875 10.347656 181.769531 10.347656 C 184.648438 10.347656 187.09375 10.953125 189.105469 12.164062 C 191.148438 13.339844 192.707031 14.972656 193.777344 17.058594 C 194.882812 19.109375 195.4375 21.414062 195.4375 23.972656 L 195.4375 31.792969 C 195.4375 34.582031 193.1875 36.839844 190.410156 36.839844 L 187.796875 36.839844 L 187.796875 32.703125 L 187.597656 32.703125 C 187.128906 33.609375 186.527344 34.433594 185.789062 35.175781 C 185.050781 35.882812 184.148438 36.4375 183.074219 36.839844 C 182.035156 37.246094 180.796875 37.445312 179.355469 37.445312 Z M 181.667969 30.683594 C 182.839844 30.683594 183.863281 30.398438 184.734375 29.824219 C 185.636719 29.21875 186.324219 28.394531 186.792969 27.351562 C 187.261719 26.308594 187.496094 25.148438 187.496094 23.871094 C 187.496094 22.625 187.261719 21.5 186.792969 20.488281 C 186.324219 19.480469 185.636719 18.691406 184.734375 18.117188 C 183.863281 17.511719 182.839844 17.210938 181.667969 17.210938 C 180.460938 17.210938 179.40625 17.511719 178.503906 18.117188 C 177.597656 18.691406 176.910156 19.480469 176.441406 20.488281 C 175.972656 21.5 175.738281 22.625 175.738281 23.871094 C 175.738281 25.148438 175.972656 26.308594 176.441406 27.351562 C 176.910156 28.394531 177.597656 29.21875 178.503906 29.824219 C 179.40625 30.398438 180.460938 30.683594 181.667969 30.683594 Z M 181.667969 30.683594 "/>
<path style=" stroke:none;fill-rule:nonzero;fill:rgb(20%,16.078432%,36.862746%);fill-opacity:1;" d="M 149.445312 36.839844 L 149.445312 18.570312 C 149.445312 16.214844 150.117188 14.367188 151.457031 13.019531 C 152.796875 11.675781 154.65625 11 157.035156 11 L 164.523438 11 L 164.523438 12.3125 C 164.523438 15.101562 162.269531 17.359375 159.496094 17.359375 L 158.945312 17.359375 C 158.472656 17.359375 158.074219 17.527344 157.738281 17.867188 C 157.402344 18.167969 157.234375 18.570312 157.234375 19.078125 L 157.234375 36.839844 Z M 149.445312 36.839844 "/>
<path style=" stroke:none;fill-rule:nonzero;fill:rgb(20%,16.078432%,36.862746%);fill-opacity:1;" d="M 130.097656 37.445312 C 127.449219 37.445312 125.074219 36.859375 122.960938 35.679688 C 120.851562 34.503906 119.175781 32.886719 117.9375 30.835938 C 116.730469 28.78125 116.128906 26.480469 116.128906 23.921875 C 116.128906 21.332031 116.730469 19.027344 117.9375 17.007812 C 119.175781 14.957031 120.851562 13.339844 122.960938 12.164062 C 125.074219 10.953125 127.449219 10.347656 130.097656 10.347656 C 132.746094 10.347656 135.105469 10.953125 137.183594 12.164062 C 139.292969 13.339844 140.953125 14.957031 142.15625 17.007812 C 143.398438 19.027344 144.015625 21.332031 144.015625 23.921875 C 144.015625 26.480469 143.398438 28.78125 142.15625 30.835938 C 140.953125 32.886719 139.292969 34.503906 137.183594 35.679688 C 135.074219 36.859375 132.710938 37.445312 130.097656 37.445312 Z M 130.097656 30.632812 C 131.335938 30.632812 132.410156 30.332031 133.3125 29.726562 C 134.21875 29.121094 134.921875 28.3125 135.425781 27.304688 C 135.925781 26.292969 136.179688 25.148438 136.179688 23.871094 C 136.179688 22.625 135.925781 21.5 135.425781 20.488281 C 134.921875 19.480469 134.21875 18.671875 133.3125 18.066406 C 132.410156 17.460938 131.335938 17.160156 130.097656 17.160156 C 128.859375 17.160156 127.769531 17.460938 126.832031 18.066406 C 125.925781 18.671875 125.222656 19.480469 124.722656 20.488281 C 124.21875 21.5 123.96875 22.625 123.96875 23.871094 C 123.96875 25.148438 124.21875 26.292969 124.722656 27.304688 C 125.222656 28.3125 125.925781 29.121094 126.832031 29.726562 C 127.769531 30.332031 128.859375 30.632812 130.097656 30.632812 Z M 130.097656 30.632812 "/>
<path style=" stroke:none;fill-rule:nonzero;fill:rgb(20%,16.078432%,36.862746%);fill-opacity:1;" d="M 84.921875 36.839844 L 84.921875 21.953125 C 84.921875 19.800781 85.441406 17.847656 86.480469 16.097656 C 87.519531 14.347656 88.992188 12.953125 90.902344 11.910156 C 92.84375 10.867188 95.140625 10.347656 97.785156 10.347656 C 100.46875 10.347656 102.746094 10.867188 104.621094 11.910156 C 106.53125 12.953125 107.988281 14.347656 108.992188 16.097656 C 109.996094 17.847656 110.5 19.800781 110.5 21.953125 L 110.5 31.792969 C 110.5 34.582031 108.25 36.839844 105.476562 36.839844 L 102.710938 36.839844 L 102.710938 22.15625 C 102.710938 21.246094 102.492188 20.421875 102.058594 19.683594 C 101.621094 18.910156 101.019531 18.304688 100.25 17.867188 C 99.511719 17.394531 98.675781 17.160156 97.738281 17.160156 C 96.765625 17.160156 95.894531 17.394531 95.125 17.867188 C 94.386719 18.304688 93.800781 18.910156 93.363281 19.683594 C 92.929688 20.421875 92.710938 21.246094 92.710938 22.15625 L 92.710938 31.792969 C 92.710938 34.582031 90.460938 36.839844 87.6875 36.839844 Z M 84.921875 36.839844 "/>
<path style=" stroke:none;fill-rule:nonzero;fill:rgb(20%,16.078432%,36.862746%);fill-opacity:1;" d="M 53.691406 36.839844 L 53.691406 0 L 56.453125 0 C 59.226562 0 61.476562 2.257812 61.476562 5.046875 L 61.476562 20.742188 L 64.894531 20.742188 L 70.773438 10.953125 L 79.46875 10.953125 L 72.535156 21.75 C 74.542969 22.59375 76.101562 23.886719 77.207031 25.636719 C 78.34375 27.351562 78.914062 29.371094 78.914062 31.695312 L 78.914062 31.792969 C 78.914062 34.582031 76.664062 36.839844 73.890625 36.839844 L 71.074219 36.839844 L 71.074219 31.695312 C 71.074219 30.75 70.839844 29.910156 70.371094 29.171875 C 69.9375 28.394531 69.351562 27.789062 68.613281 27.351562 C 67.875 26.914062 67.039062 26.695312 66.101562 26.695312 L 61.476562 26.695312 L 61.476562 31.792969 C 61.476562 34.582031 59.226562 36.839844 56.453125 36.839844 Z M 53.691406 36.839844 "/>
<path style=" stroke:none;fill-rule:nonzero;fill:rgb(20%,16.078432%,36.862746%);fill-opacity:1;" d="M 37.492188 36.839844 C 34.578125 36.839844 32.015625 36.304688 29.804688 35.226562 C 27.59375 34.117188 25.867188 32.601562 24.628906 30.683594 C 23.421875 28.734375 22.820312 26.480469 22.820312 23.921875 C 22.820312 21.09375 23.40625 18.671875 24.578125 16.652344 C 25.75 14.636719 27.308594 13.085938 29.253906 12.011719 C 31.230469 10.902344 33.40625 10.347656 35.785156 10.347656 C 38.5 10.347656 40.757812 10.917969 42.570312 12.0625 C 44.410156 13.207031 45.800781 14.769531 46.738281 16.753906 C 47.675781 18.707031 48.144531 20.945312 48.144531 23.46875 C 48.144531 23.90625 48.113281 24.425781 48.046875 25.03125 C 48 25.828125 47.324219 26.394531 46.527344 26.394531 L 31.011719 26.394531 C 31.210938 27.269531 31.597656 28.007812 32.167969 28.613281 C 32.734375 29.21875 33.457031 29.675781 34.328125 29.976562 C 35.199219 30.246094 36.171875 30.382812 37.242188 30.382812 L 45.132812 30.382812 L 45.132812 31.792969 C 45.132812 34.582031 42.882812 36.839844 40.105469 36.839844 Z M 30.808594 21.5 L 40.609375 21.5 C 40.542969 20.960938 40.441406 20.4375 40.308594 19.933594 C 40.171875 19.429688 39.957031 18.992188 39.652344 18.621094 C 39.386719 18.21875 39.066406 17.882812 38.699219 17.613281 C 38.332031 17.308594 37.894531 17.074219 37.394531 16.90625 C 36.921875 16.738281 36.386719 16.652344 35.785156 16.652344 C 35.015625 16.652344 34.328125 16.789062 33.722656 17.058594 C 33.121094 17.328125 32.617188 17.695312 32.21875 18.167969 C 31.816406 18.605469 31.496094 19.128906 31.261719 19.734375 C 31.0625 20.304688 30.910156 20.894531 30.808594 21.5 Z M 30.808594 21.5 "/>
<path style=" stroke:none;fill-rule:nonzero;fill:rgb(20%,16.078432%,36.862746%);fill-opacity:1;" d="M 11.808594 36.839844 C 9.429688 36.839844 7.570312 36.167969 6.230469 34.824219 C 4.890625 33.441406 4.222656 31.59375 4.222656 29.269531 L 4.222656 11.203125 L 12.058594 11.203125 L 12.058594 28.816406 C 12.058594 29.21875 12.195312 29.574219 12.460938 29.875 C 12.761719 30.144531 13.117188 30.28125 13.515625 30.28125 L 19.144531 30.28125 L 19.144531 31.792969 C 19.144531 34.582031 16.894531 36.839844 14.121094 36.839844 Z M 0 17.359375 L 0 10.953125 L 19.144531 10.953125 L 19.144531 17.359375 Z M 0 17.359375 "/>
<path style=" stroke:none;fill-rule:nonzero;fill:rgb(100%,39.215687%,35.294119%);fill-opacity:1;" d="M 4.976562 3.027344 L 12.511719 3.027344 L 12.511719 6.054688 C 12.511719 8.84375 10.261719 11.101562 7.488281 11.101562 L 4.976562 11.101562 Z M 4.976562 3.027344 "/>
<path style=" stroke:none;fill-rule:nonzero;fill:rgb(20%,16.078432%,36.862746%);fill-opacity:1;" d="M 196.980469 6.730469 C 198.832031 6.730469 200.332031 8.234375 200.332031 10.09375 C 200.332031 11.953125 198.832031 13.457031 196.980469 13.457031 C 195.128906 13.457031 193.628906 11.953125 193.628906 10.09375 C 193.628906 8.234375 195.128906 6.730469 196.980469 6.730469 Z M 196.980469 7.402344 C 196.269531 7.402344 195.585938 7.683594 195.085938 8.191406 C 194.582031 8.695312 194.300781 9.378906 194.300781 10.09375 C 194.300781 10.808594 194.582031 11.492188 195.085938 11.996094 C 195.585938 12.5 196.269531 12.785156 196.980469 12.785156 C 197.691406 12.785156 198.371094 12.5 198.875 11.996094 C 199.378906 11.492188 199.660156 10.808594 199.660156 10.09375 C 199.660156 9.378906 199.378906 8.695312 198.875 8.191406 C 198.371094 7.683594 197.691406 7.402344 196.980469 7.402344 Z M 197.148438 8.410156 C 197.402344 8.410156 197.652344 8.496094 197.855469 8.648438 C 198.058594 8.804688 198.207031 9.023438 198.277344 9.269531 C 198.347656 9.519531 198.332031 9.78125 198.238281 10.019531 C 198.144531 10.257812 197.976562 10.460938 197.757812 10.59375 L 198.609375 11.777344 L 197.78125 11.777344 L 197.050781 10.765625 L 196.308594 10.765625 L 196.308594 11.777344 L 195.640625 11.777344 L 195.640625 8.410156 Z M 197.148438 9.082031 L 196.308594 9.082031 L 196.308594 10.09375 L 197.148438 10.09375 C 197.273438 10.09375 197.390625 10.046875 197.484375 9.960938 C 197.578125 9.878906 197.636719 9.761719 197.648438 9.636719 L 197.648438 9.589844 C 197.648438 9.453125 197.597656 9.328125 197.503906 9.230469 C 197.410156 9.136719 197.28125 9.082031 197.148438 9.082031 Z M 197.148438 9.082031 "/>
<path style=" stroke:none;fill-rule:nonzero;fill:rgb(0%,0%,0%);fill-opacity:1;" d="M 189.941406 51.546875 L 189.941406 50.863281 L 192.605469 50.863281 C 192.835938 50.863281 193.027344 50.816406 193.183594 50.71875 C 193.339844 50.625 193.457031 50.496094 193.539062 50.339844 C 193.628906 50.183594 193.671875 50.023438 193.671875 49.859375 C 193.671875 49.699219 193.636719 49.546875 193.5625 49.414062 C 193.488281 49.273438 193.378906 49.160156 193.238281 49.070312 C 193.097656 48.980469 192.921875 48.933594 192.707031 48.933594 L 191.519531 48.933594 C 191.15625 48.933594 190.839844 48.875 190.574219 48.757812 C 190.316406 48.628906 190.113281 48.453125 189.972656 48.222656 C 189.839844 47.992188 189.773438 47.722656 189.773438 47.417969 C 189.773438 47.144531 189.839844 46.886719 189.972656 46.648438 C 190.109375 46.410156 190.296875 46.21875 190.539062 46.078125 C 190.785156 45.929688 191.070312 45.855469 191.394531 45.855469 L 193.960938 45.855469 L 193.960938 46.535156 L 191.472656 46.535156 C 191.183594 46.535156 190.960938 46.625 190.796875 46.804688 C 190.632812 46.976562 190.550781 47.171875 190.550781 47.394531 C 190.550781 47.613281 190.632812 47.804688 190.796875 47.976562 C 190.960938 48.148438 191.203125 48.234375 191.53125 48.234375 L 192.640625 48.234375 C 193.039062 48.234375 193.375 48.300781 193.640625 48.433594 C 193.914062 48.566406 194.117188 48.753906 194.25 48.992188 C 194.390625 49.230469 194.460938 49.507812 194.460938 49.828125 C 194.460938 50.117188 194.386719 50.398438 194.238281 50.664062 C 194.089844 50.925781 193.886719 51.136719 193.628906 51.300781 C 193.378906 51.464844 193.082031 51.546875 192.738281 51.546875 Z M 189.941406 51.546875 "/>
<path style=" stroke:none;fill-rule:nonzero;fill:rgb(0%,0%,0%);fill-opacity:1;" d="M 186.574219 51.546875 C 185.964844 51.546875 185.421875 51.433594 184.941406 51.210938 C 184.464844 50.980469 184.089844 50.652344 183.808594 50.230469 C 183.53125 49.804688 183.394531 49.296875 183.394531 48.699219 C 183.394531 48.152344 183.507812 47.652344 183.730469 47.207031 C 183.953125 46.753906 184.261719 46.390625 184.664062 46.125 C 185.070312 45.855469 185.542969 45.722656 186.082031 45.722656 C 186.640625 45.722656 187.109375 45.84375 187.496094 46.089844 C 187.878906 46.335938 188.171875 46.667969 188.371094 47.082031 C 188.570312 47.5 188.671875 47.96875 188.671875 48.488281 C 188.671875 48.5625 188.667969 48.644531 188.660156 48.734375 C 188.652344 48.824219 188.640625 48.902344 188.628906 48.96875 L 184.21875 48.96875 C 184.238281 49.386719 184.359375 49.734375 184.574219 50.015625 C 184.789062 50.300781 185.066406 50.511719 185.40625 50.652344 C 185.753906 50.792969 186.128906 50.863281 186.527344 50.863281 L 187.960938 50.863281 L 187.960938 51.546875 Z M 184.21875 48.410156 L 187.882812 48.410156 C 187.882812 48.261719 187.867188 48.097656 187.839844 47.917969 C 187.808594 47.734375 187.753906 47.550781 187.671875 47.375 C 187.597656 47.195312 187.492188 47.03125 187.351562 46.882812 C 187.21875 46.734375 187.042969 46.613281 186.828125 46.527344 C 186.621094 46.429688 186.363281 46.378906 186.0625 46.378906 C 185.78125 46.378906 185.523438 46.441406 185.296875 46.558594 C 185.066406 46.679688 184.875 46.835938 184.71875 47.039062 C 184.5625 47.230469 184.441406 47.449219 184.351562 47.6875 C 184.269531 47.921875 184.226562 48.164062 184.21875 48.410156 Z M 184.21875 48.410156 "/>
<path style=" stroke:none;fill-rule:nonzero;fill:rgb(0%,0%,0%);fill-opacity:1;" d="M 181.210938 51.546875 L 181.210938 45.855469 L 181.988281 45.855469 L 181.988281 51.546875 Z M 181.601562 44.828125 C 181.453125 44.828125 181.324219 44.773438 181.210938 44.660156 C 181.101562 44.550781 181.042969 44.421875 181.042969 44.273438 C 181.042969 44.117188 181.101562 43.984375 181.210938 43.882812 C 181.324219 43.769531 181.453125 43.714844 181.601562 43.714844 C 181.753906 43.714844 181.886719 43.769531 181.988281 43.882812 C 182.101562 43.984375 182.15625 44.117188 182.15625 44.273438 C 182.15625 44.421875 182.101562 44.550781 181.988281 44.660156 C 181.886719 44.773438 181.753906 44.828125 181.601562 44.828125 Z M 181.601562 44.828125 "/>
<path style=" stroke:none;fill-rule:nonzero;fill:rgb(0%,0%,0%);fill-opacity:1;" d="M 178.675781 51.546875 C 178.171875 51.546875 177.773438 51.402344 177.488281 51.109375 C 177.207031 50.820312 177.0625 50.425781 177.0625 49.929688 L 177.0625 44.429688 L 177.839844 44.429688 L 177.839844 49.839844 C 177.839844 50.164062 177.921875 50.417969 178.085938 50.597656 C 178.257812 50.777344 178.503906 50.863281 178.832031 50.863281 L 179.917969 50.863281 L 179.917969 51.546875 Z M 176.074219 46.535156 L 176.074219 45.855469 L 179.941406 45.855469 L 179.941406 46.535156 Z M 176.074219 46.535156 "/>
<path style=" stroke:none;fill-rule:nonzero;fill:rgb(0%,0%,0%);fill-opacity:1;" d="M 174.269531 51.546875 L 174.269531 45.855469 L 175.046875 45.855469 L 175.046875 51.546875 Z M 174.65625 44.828125 C 174.507812 44.828125 174.378906 44.773438 174.269531 44.660156 C 174.15625 44.550781 174.101562 44.421875 174.101562 44.273438 C 174.101562 44.117188 174.15625 43.984375 174.269531 43.882812 C 174.378906 43.769531 174.507812 43.714844 174.65625 43.714844 C 174.8125 43.714844 174.941406 43.769531 175.046875 43.882812 C 175.15625 43.984375 175.214844 44.117188 175.214844 44.273438 C 175.214844 44.421875 175.15625 44.550781 175.046875 44.660156 C 174.941406 44.773438 174.8125 44.828125 174.65625 44.828125 Z M 174.65625 44.828125 "/>
<path style=" stroke:none;fill-rule:nonzero;fill:rgb(0%,0%,0%);fill-opacity:1;" d="M 167.378906 51.546875 L 167.378906 48.234375 C 167.378906 47.710938 167.496094 47.265625 167.726562 46.894531 C 167.960938 46.515625 168.277344 46.222656 168.667969 46.023438 C 169.0625 45.816406 169.496094 45.710938 169.96875 45.710938 C 170.449219 45.710938 170.882812 45.816406 171.269531 46.023438 C 171.660156 46.222656 171.972656 46.515625 172.203125 46.894531 C 172.4375 47.265625 172.558594 47.710938 172.558594 48.234375 L 172.558594 51.546875 L 171.78125 51.546875 L 171.78125 48.265625 C 171.78125 47.871094 171.695312 47.539062 171.523438 47.261719 C 171.355469 46.980469 171.128906 46.765625 170.847656 46.613281 C 170.574219 46.464844 170.277344 46.390625 169.957031 46.390625 C 169.648438 46.390625 169.355469 46.464844 169.082031 46.613281 C 168.804688 46.757812 168.585938 46.96875 168.414062 47.25 C 168.242188 47.527344 168.160156 47.863281 168.160156 48.265625 L 168.160156 51.546875 Z M 167.378906 51.546875 "/>
<path style=" stroke:none;fill-rule:nonzero;fill:rgb(0%,0%,0%);fill-opacity:1;" d="M 163.070312 51.691406 C 162.597656 51.691406 162.164062 51.589844 161.769531 51.390625 C 161.378906 51.179688 161.0625 50.886719 160.824219 50.507812 C 160.597656 50.128906 160.480469 49.683594 160.480469 49.167969 L 160.480469 45.855469 L 161.257812 45.855469 L 161.257812 49.136719 C 161.257812 49.53125 161.34375 49.867188 161.515625 50.152344 C 161.691406 50.433594 161.917969 50.648438 162.191406 50.796875 C 162.464844 50.941406 162.757812 51.011719 163.070312 51.011719 C 163.386719 51.011719 163.683594 50.9375 163.957031 50.789062 C 164.238281 50.636719 164.464844 50.425781 164.636719 50.152344 C 164.804688 49.867188 164.890625 49.53125 164.890625 49.136719 L 164.890625 45.855469 L 165.667969 45.855469 L 165.667969 49.167969 C 165.667969 49.683594 165.554688 50.128906 165.324219 50.507812 C 165.09375 50.886719 164.785156 51.179688 164.390625 51.390625 C 164 51.589844 163.558594 51.691406 163.070312 51.691406 Z M 163.070312 51.691406 "/>
<path style=" stroke:none;fill-rule:nonzero;fill:rgb(0%,0%,0%);fill-opacity:1;" d="M 157.945312 51.546875 C 157.441406 51.546875 157.046875 51.402344 156.757812 51.109375 C 156.476562 50.820312 156.335938 50.425781 156.335938 49.929688 L 156.335938 44.429688 L 157.113281 44.429688 L 157.113281 49.839844 C 157.113281 50.164062 157.195312 50.417969 157.355469 50.597656 C 157.527344 50.777344 157.773438 50.863281 158.101562 50.863281 L 159.191406 50.863281 L 159.191406 51.546875 Z M 155.347656 46.535156 L 155.347656 45.855469 L 159.210938 45.855469 L 159.210938 46.535156 Z M 155.347656 46.535156 "/>
<path style=" stroke:none;fill-rule:nonzero;fill:rgb(0%,0%,0%);fill-opacity:1;" d="M 152.214844 51.546875 L 152.214844 47.472656 C 152.214844 46.96875 152.355469 46.574219 152.636719 46.292969 C 152.925781 46 153.324219 45.855469 153.828125 45.855469 L 154.804688 45.855469 L 154.804688 46.535156 L 153.980469 46.535156 C 153.65625 46.535156 153.40625 46.625 153.238281 46.804688 C 153.074219 46.984375 152.992188 47.234375 152.992188 47.5625 L 152.992188 51.546875 Z M 152.214844 51.546875 "/>
<path style=" stroke:none;fill-rule:nonzero;fill:rgb(0%,0%,0%);fill-opacity:1;" d="M 147.882812 51.691406 C 147.3125 51.691406 146.808594 51.5625 146.363281 51.300781 C 145.917969 51.03125 145.570312 50.671875 145.320312 50.21875 C 145.066406 49.765625 144.941406 49.257812 144.941406 48.699219 C 144.941406 48.144531 145.066406 47.636719 145.320312 47.183594 C 145.570312 46.730469 145.917969 46.375 146.363281 46.113281 C 146.808594 45.84375 147.3125 45.710938 147.882812 45.710938 C 148.457031 45.710938 148.957031 45.84375 149.394531 46.113281 C 149.839844 46.375 150.1875 46.730469 150.441406 47.183594 C 150.699219 47.628906 150.828125 48.136719 150.828125 48.699219 C 150.828125 49.257812 150.699219 49.765625 150.441406 50.21875 C 150.1875 50.671875 149.839844 51.03125 149.394531 51.300781 C 148.957031 51.5625 148.457031 51.691406 147.882812 51.691406 Z M 147.882812 51.011719 C 148.308594 51.011719 148.679688 50.910156 149.007812 50.710938 C 149.332031 50.5 149.585938 50.222656 149.761719 49.871094 C 149.945312 49.523438 150.039062 49.132812 150.039062 48.699219 C 150.039062 48.269531 149.945312 47.878906 149.761719 47.53125 C 149.585938 47.179688 149.332031 46.90625 149.007812 46.703125 C 148.679688 46.496094 148.308594 46.390625 147.882812 46.390625 C 147.457031 46.390625 147.078125 46.496094 146.75 46.703125 C 146.433594 46.90625 146.179688 47.179688 145.996094 47.53125 C 145.820312 47.878906 145.730469 48.269531 145.730469 48.699219 C 145.730469 49.132812 145.820312 49.523438 145.996094 49.871094 C 146.179688 50.222656 146.433594 50.5 146.75 50.710938 C 147.078125 50.910156 147.457031 51.011719 147.882812 51.011719 Z M 147.882812 51.011719 "/>
<path style=" stroke:none;fill-rule:nonzero;fill:rgb(0%,0%,0%);fill-opacity:1;" d="M 140.957031 45.710938 C 141.359375 45.710938 141.730469 45.78125 142.078125 45.921875 C 142.425781 46.058594 142.730469 46.253906 142.992188 46.515625 C 143.257812 46.773438 143.464844 47.09375 143.613281 47.472656 C 143.761719 47.847656 143.835938 48.269531 143.835938 48.746094 C 143.835938 49.347656 143.707031 49.867188 143.457031 50.308594 C 143.207031 50.746094 142.867188 51.085938 142.445312 51.324219 C 142.03125 51.5625 141.570312 51.679688 141.058594 51.679688 C 140.746094 51.679688 140.449219 51.625 140.167969 51.511719 C 139.886719 51.402344 139.636719 51.25 139.414062 51.054688 C 139.191406 50.855469 139.019531 50.628906 138.890625 50.375 L 138.871094 50.375 L 138.871094 54 L 138.09375 54 L 138.09375 48.691406 C 138.09375 48.050781 138.222656 47.511719 138.480469 47.074219 C 138.738281 46.625 139.089844 46.289062 139.523438 46.058594 C 139.960938 45.828125 140.4375 45.710938 140.957031 45.710938 Z M 140.945312 46.390625 C 140.578125 46.390625 140.230469 46.480469 139.914062 46.660156 C 139.601562 46.839844 139.351562 47.097656 139.160156 47.441406 C 138.972656 47.78125 138.878906 48.199219 138.878906 48.691406 C 138.878906 49.171875 138.976562 49.589844 139.167969 49.9375 C 139.363281 50.28125 139.617188 50.546875 139.9375 50.730469 C 140.253906 50.910156 140.597656 51 140.96875 51 C 141.339844 51 141.679688 50.90625 141.992188 50.71875 C 142.308594 50.535156 142.566406 50.269531 142.757812 49.929688 C 142.949219 49.578125 143.046875 49.167969 143.046875 48.699219 C 143.046875 48.21875 142.949219 47.804688 142.757812 47.460938 C 142.566406 47.113281 142.308594 46.847656 141.992188 46.671875 C 141.671875 46.484375 141.324219 46.390625 140.945312 46.390625 Z M 140.945312 46.390625 "/>
<path style=" stroke:none;fill-rule:nonzero;fill:rgb(0%,0%,0%);fill-opacity:1;" d="M 133.832031 45.710938 C 134.230469 45.710938 134.605469 45.78125 134.953125 45.921875 C 135.300781 46.058594 135.605469 46.253906 135.863281 46.515625 C 136.128906 46.773438 136.335938 47.09375 136.484375 47.472656 C 136.632812 47.847656 136.707031 48.269531 136.707031 48.746094 C 136.707031 49.347656 136.582031 49.867188 136.332031 50.308594 C 136.078125 50.746094 135.742188 51.085938 135.320312 51.324219 C 134.90625 51.5625 134.441406 51.679688 133.929688 51.679688 C 133.621094 51.679688 133.324219 51.625 133.042969 51.511719 C 132.761719 51.402344 132.507812 51.25 132.289062 51.054688 C 132.066406 50.855469 131.890625 50.628906 131.765625 50.375 L 131.742188 50.375 L 131.742188 54 L 130.964844 54 L 130.964844 48.691406 C 130.964844 48.050781 131.09375 47.511719 131.355469 47.074219 C 131.613281 46.625 131.960938 46.289062 132.398438 46.058594 C 132.835938 45.828125 133.3125 45.710938 133.832031 45.710938 Z M 133.820312 46.390625 C 133.449219 46.390625 133.105469 46.480469 132.785156 46.660156 C 132.476562 46.839844 132.222656 47.097656 132.03125 47.441406 C 131.847656 47.78125 131.753906 48.199219 131.753906 48.691406 C 131.753906 49.171875 131.851562 49.589844 132.042969 49.9375 C 132.234375 50.28125 132.492188 50.546875 132.808594 50.730469 C 133.128906 50.910156 133.472656 51 133.84375 51 C 134.210938 51 134.554688 50.90625 134.863281 50.71875 C 135.183594 50.535156 135.4375 50.269531 135.628906 49.929688 C 135.824219 49.578125 135.917969 49.167969 135.917969 48.699219 C 135.917969 48.21875 135.824219 47.804688 135.628906 47.460938 C 135.4375 47.113281 135.183594 46.847656 134.863281 46.671875 C 134.546875 46.484375 134.199219 46.390625 133.820312 46.390625 Z M 133.820312 46.390625 "/>
<path style=" stroke:none;fill-rule:nonzero;fill:rgb(0%,0%,0%);fill-opacity:1;" d="M 126.632812 51.691406 C 126.0625 51.691406 125.558594 51.5625 125.113281 51.300781 C 124.667969 51.03125 124.320312 50.671875 124.066406 50.21875 C 123.816406 49.765625 123.691406 49.257812 123.691406 48.699219 C 123.691406 48.144531 123.816406 47.636719 124.066406 47.183594 C 124.320312 46.730469 124.667969 46.375 125.113281 46.113281 C 125.558594 45.84375 126.0625 45.710938 126.632812 45.710938 C 127.203125 45.710938 127.707031 45.84375 128.144531 46.113281 C 128.589844 46.375 128.9375 46.730469 129.1875 47.183594 C 129.449219 47.628906 129.578125 48.136719 129.578125 48.699219 C 129.578125 49.257812 129.449219 49.765625 129.1875 50.21875 C 128.9375 50.671875 128.589844 51.03125 128.144531 51.300781 C 127.707031 51.5625 127.203125 51.691406 126.632812 51.691406 Z M 126.632812 51.011719 C 127.054688 51.011719 127.429688 50.910156 127.757812 50.710938 C 128.082031 50.5 128.332031 50.222656 128.511719 49.871094 C 128.695312 49.523438 128.789062 49.132812 128.789062 48.699219 C 128.789062 48.269531 128.695312 47.878906 128.511719 47.53125 C 128.332031 47.179688 128.082031 46.90625 127.757812 46.703125 C 127.429688 46.496094 127.054688 46.390625 126.632812 46.390625 C 126.203125 46.390625 125.828125 46.496094 125.5 46.703125 C 125.183594 46.90625 124.929688 47.179688 124.746094 47.53125 C 124.566406 47.878906 124.480469 48.269531 124.480469 48.699219 C 124.480469 49.132812 124.566406 49.523438 124.746094 49.871094 C 124.929688 50.222656 125.183594 50.5 125.5 50.710938 C 125.828125 50.910156 126.203125 51.011719 126.632812 51.011719 Z M 126.632812 51.011719 "/>
<path style=" stroke:none;fill-rule:nonzero;fill:rgb(0%,0%,0%);fill-opacity:1;" d="M 114.03125 51.546875 L 114.03125 43.402344 L 114.808594 43.402344 L 114.808594 46.757812 C 115.03125 46.410156 115.320312 46.148438 115.675781 45.980469 C 116.039062 45.800781 116.421875 45.710938 116.820312 45.710938 C 117.292969 45.710938 117.71875 45.816406 118.097656 46.023438 C 118.484375 46.222656 118.785156 46.515625 119.007812 46.894531 C 119.230469 47.265625 119.34375 47.710938 119.34375 48.230469 L 119.34375 51.546875 L 118.566406 51.546875 L 118.566406 48.265625 C 118.566406 47.871094 118.472656 47.535156 118.285156 47.261719 C 118.109375 46.980469 117.875 46.761719 117.585938 46.613281 C 117.304688 46.464844 117.003906 46.390625 116.675781 46.390625 C 116.367188 46.390625 116.066406 46.464844 115.777344 46.613281 C 115.488281 46.757812 115.253906 46.964844 115.078125 47.238281 C 114.898438 47.515625 114.808594 47.847656 114.808594 48.242188 L 114.808594 51.546875 Z M 114.03125 51.546875 "/>
<path style=" stroke:none;fill-rule:nonzero;fill:rgb(0%,0%,0%);fill-opacity:1;" d="M 111.496094 51.546875 C 110.992188 51.546875 110.597656 51.402344 110.308594 51.109375 C 110.027344 50.820312 109.886719 50.425781 109.886719 49.929688 L 109.886719 44.429688 L 110.664062 44.429688 L 110.664062 49.839844 C 110.664062 50.164062 110.746094 50.417969 110.90625 50.597656 C 111.078125 50.777344 111.324219 50.863281 111.652344 50.863281 L 112.738281 50.863281 L 112.738281 51.546875 Z M 108.898438 46.535156 L 108.898438 45.855469 L 112.761719 45.855469 L 112.761719 46.535156 Z M 108.898438 46.535156 "/>
<path style=" stroke:none;fill-rule:nonzero;fill:rgb(0%,0%,0%);fill-opacity:1;" d="M 107.089844 51.546875 L 107.089844 45.855469 L 107.867188 45.855469 L 107.867188 51.546875 Z M 107.480469 44.828125 C 107.332031 44.828125 107.203125 44.773438 107.089844 44.660156 C 106.980469 44.550781 106.921875 44.421875 106.921875 44.273438 C 106.921875 44.117188 106.980469 43.984375 107.089844 43.882812 C 107.203125 43.769531 107.332031 43.714844 107.480469 43.714844 C 107.632812 43.714844 107.765625 43.769531 107.867188 43.882812 C 107.980469 43.984375 108.035156 44.117188 108.035156 44.273438 C 108.035156 44.421875 107.980469 44.550781 107.867188 44.660156 C 107.765625 44.773438 107.632812 44.828125 107.480469 44.828125 Z M 107.480469 44.828125 "/>
<path style=" stroke:none;fill-rule:nonzero;fill:rgb(0%,0%,0%);fill-opacity:1;" d="M 98.054688 51.691406 C 97.726562 51.691406 97.425781 51.625 97.152344 51.492188 C 96.878906 51.355469 96.660156 51.148438 96.496094 50.867188 C 96.34375 50.582031 96.265625 50.214844 96.265625 49.761719 L 96.265625 45.855469 L 97.042969 45.855469 L 97.042969 49.917969 C 97.042969 50.171875 97.089844 50.378906 97.1875 50.542969 C 97.28125 50.699219 97.40625 50.816406 97.554688 50.898438 C 97.707031 50.972656 97.875 51.011719 98.054688 51.011719 C 98.222656 51.011719 98.386719 50.972656 98.542969 50.898438 C 98.695312 50.816406 98.824219 50.695312 98.917969 50.53125 C 99.015625 50.367188 99.0625 50.164062 99.0625 49.917969 L 99.0625 47.574219 C 99.0625 47.144531 99.140625 46.789062 99.296875 46.515625 C 99.460938 46.238281 99.675781 46.039062 99.941406 45.914062 C 100.207031 45.777344 100.5 45.710938 100.820312 45.710938 C 101.136719 45.710938 101.429688 45.777344 101.695312 45.914062 C 101.960938 46.039062 102.171875 46.238281 102.328125 46.515625 C 102.492188 46.789062 102.574219 47.144531 102.574219 47.574219 L 102.574219 49.917969 C 102.574219 50.164062 102.621094 50.367188 102.71875 50.53125 C 102.8125 50.695312 102.941406 50.816406 103.09375 50.898438 C 103.257812 50.972656 103.429688 51.011719 103.605469 51.011719 C 103.777344 51.011719 103.9375 50.972656 104.085938 50.898438 C 104.238281 50.816406 104.367188 50.695312 104.460938 50.53125 C 104.558594 50.367188 104.605469 50.164062 104.605469 49.917969 L 104.605469 45.855469 L 105.382812 45.855469 L 105.382812 49.761719 C 105.382812 50.214844 105.300781 50.582031 105.140625 50.867188 C 104.984375 51.148438 104.769531 51.355469 104.496094 51.492188 C 104.230469 51.625 103.933594 51.691406 103.605469 51.691406 C 103.273438 51.691406 102.96875 51.625 102.695312 51.492188 C 102.421875 51.355469 102.203125 51.148438 102.039062 50.867188 C 101.878906 50.582031 101.796875 50.214844 101.796875 49.761719 L 101.796875 47.460938 C 101.796875 47.203125 101.746094 46.996094 101.652344 46.839844 C 101.5625 46.683594 101.445312 46.570312 101.296875 46.503906 C 101.148438 46.429688 100.988281 46.390625 100.820312 46.390625 C 100.65625 46.390625 100.5 46.429688 100.351562 46.503906 C 100.203125 46.570312 100.082031 46.683594 99.984375 46.839844 C 99.890625 46.996094 99.839844 47.203125 99.839844 47.460938 L 99.839844 49.761719 C 99.839844 50.214844 99.761719 50.582031 99.597656 50.867188 C 99.433594 51.148438 99.21875 51.355469 98.953125 51.492188 C 98.6875 51.625 98.386719 51.691406 98.054688 51.691406 Z M 98.054688 51.691406 "/>
<path style=" stroke:none;fill-rule:nonzero;fill:rgb(0%,0%,0%);fill-opacity:1;" d="M 90.789062 51.546875 C 90.285156 51.546875 89.886719 51.402344 89.597656 51.109375 C 89.316406 50.820312 89.175781 50.425781 89.175781 49.929688 L 89.175781 44.429688 L 89.953125 44.429688 L 89.953125 49.839844 C 89.953125 50.164062 90.035156 50.417969 90.199219 50.597656 C 90.371094 50.777344 90.617188 50.863281 90.945312 50.863281 L 92.03125 50.863281 L 92.03125 51.546875 Z M 88.1875 46.535156 L 88.1875 45.855469 L 92.054688 45.855469 L 92.054688 46.535156 Z M 88.1875 46.535156 "/>
<path style=" stroke:none;fill-rule:nonzero;fill:rgb(0%,0%,0%);fill-opacity:1;" d="M 81.976562 51.546875 L 81.976562 48.234375 C 81.976562 47.710938 82.09375 47.265625 82.324219 46.894531 C 82.558594 46.515625 82.875 46.222656 83.265625 46.023438 C 83.660156 45.816406 84.09375 45.710938 84.566406 45.710938 C 85.046875 45.710938 85.480469 45.816406 85.867188 46.023438 C 86.257812 46.222656 86.570312 46.515625 86.800781 46.894531 C 87.035156 47.265625 87.15625 47.710938 87.15625 48.234375 L 87.15625 51.546875 L 86.375 51.546875 L 86.375 48.265625 C 86.375 47.871094 86.292969 47.539062 86.121094 47.261719 C 85.949219 46.980469 85.726562 46.765625 85.445312 46.613281 C 85.167969 46.464844 84.875 46.390625 84.554688 46.390625 C 84.242188 46.390625 83.953125 46.464844 83.679688 46.613281 C 83.402344 46.757812 83.179688 46.96875 83.011719 47.25 C 82.839844 47.527344 82.753906 47.863281 82.753906 48.265625 L 82.753906 51.546875 Z M 81.976562 51.546875 "/>
<path style=" stroke:none;fill-rule:nonzero;fill:rgb(0%,0%,0%);fill-opacity:1;" d="M 78.488281 51.546875 C 77.878906 51.546875 77.335938 51.433594 76.855469 51.210938 C 76.382812 50.980469 76.003906 50.652344 75.722656 50.230469 C 75.449219 49.804688 75.3125 49.296875 75.3125 48.699219 C 75.3125 48.152344 75.421875 47.652344 75.644531 47.207031 C 75.867188 46.753906 76.175781 46.390625 76.578125 46.125 C 76.984375 45.855469 77.457031 45.722656 78 45.722656 C 78.554688 45.722656 79.023438 45.84375 79.410156 46.089844 C 79.792969 46.335938 80.085938 46.667969 80.285156 47.082031 C 80.488281 47.5 80.585938 47.96875 80.585938 48.488281 C 80.585938 48.5625 80.582031 48.644531 80.574219 48.734375 C 80.566406 48.824219 80.558594 48.902344 80.542969 48.96875 L 76.132812 48.96875 C 76.15625 49.386719 76.273438 49.734375 76.488281 50.015625 C 76.703125 50.300781 76.980469 50.511719 77.320312 50.652344 C 77.667969 50.792969 78.042969 50.863281 78.441406 50.863281 L 79.875 50.863281 L 79.875 51.546875 Z M 76.132812 48.410156 L 79.796875 48.410156 C 79.796875 48.261719 79.785156 48.097656 79.753906 47.917969 C 79.722656 47.734375 79.667969 47.550781 79.585938 47.375 C 79.511719 47.195312 79.40625 47.03125 79.265625 46.882812 C 79.132812 46.734375 78.957031 46.613281 78.742188 46.527344 C 78.535156 46.429688 78.28125 46.378906 77.976562 46.378906 C 77.695312 46.378906 77.441406 46.441406 77.210938 46.558594 C 76.980469 46.679688 76.789062 46.835938 76.632812 47.039062 C 76.476562 47.230469 76.355469 47.449219 76.265625 47.6875 C 76.183594 47.921875 76.140625 48.164062 76.132812 48.410156 Z M 76.132812 48.410156 "/>
<path style=" stroke:none;fill-rule:nonzero;fill:rgb(0%,0%,0%);fill-opacity:1;" d="M 73.125 51.546875 L 73.125 43.402344 L 73.902344 43.402344 L 73.902344 51.546875 Z M 73.125 51.546875 "/>
<path style=" stroke:none;fill-rule:nonzero;fill:rgb(0%,0%,0%);fill-opacity:1;" d="M 68.335938 51.691406 C 67.765625 51.691406 67.273438 51.558594 66.867188 51.289062 C 66.460938 51.019531 66.148438 50.664062 65.933594 50.21875 C 65.71875 49.765625 65.613281 49.257812 65.613281 48.699219 C 65.613281 48.136719 65.730469 47.628906 65.96875 47.183594 C 66.207031 46.730469 66.542969 46.371094 66.980469 46.113281 C 67.421875 45.851562 67.949219 45.722656 68.554688 45.722656 C 69.140625 45.722656 69.644531 45.851562 70.066406 46.113281 C 70.496094 46.371094 70.828125 46.722656 71.054688 47.160156 C 71.292969 47.601562 71.410156 48.09375 71.410156 48.644531 L 71.410156 51.546875 L 70.644531 51.546875 L 70.644531 50.273438 L 70.609375 50.273438 C 70.507812 50.496094 70.351562 50.71875 70.144531 50.941406 C 69.9375 51.160156 69.683594 51.335938 69.378906 51.480469 C 69.082031 51.621094 68.734375 51.691406 68.335938 51.691406 Z M 68.5 51.019531 C 68.914062 51.019531 69.28125 50.921875 69.601562 50.71875 C 69.917969 50.511719 70.167969 50.234375 70.34375 49.882812 C 70.53125 49.527344 70.621094 49.125 70.621094 48.679688 C 70.621094 48.238281 70.539062 47.847656 70.367188 47.507812 C 70.195312 47.164062 69.957031 46.894531 69.644531 46.691406 C 69.332031 46.492188 68.964844 46.390625 68.535156 46.390625 C 68.089844 46.390625 67.707031 46.496094 67.390625 46.703125 C 67.070312 46.90625 66.828125 47.183594 66.65625 47.539062 C 66.488281 47.890625 66.402344 48.289062 66.402344 48.734375 C 66.402344 49.152344 66.484375 49.535156 66.644531 49.882812 C 66.808594 50.234375 67.046875 50.511719 67.355469 50.71875 C 67.675781 50.921875 68.054688 51.019531 68.5 51.019531 Z M 68.5 51.019531 "/>
<path style=" stroke:none;fill-rule:nonzero;fill:rgb(0%,0%,0%);fill-opacity:1;" d="M 63.527344 51.546875 C 63.023438 51.546875 62.628906 51.402344 62.339844 51.109375 C 62.058594 50.820312 61.917969 50.425781 61.917969 49.929688 L 61.917969 44.429688 L 62.695312 44.429688 L 62.695312 49.839844 C 62.695312 50.164062 62.777344 50.417969 62.941406 50.597656 C 63.109375 50.777344 63.359375 50.863281 63.683594 50.863281 L 64.773438 50.863281 L 64.773438 51.546875 Z M 60.929688 46.535156 L 60.929688 45.855469 L 64.792969 45.855469 L 64.792969 46.535156 Z M 60.929688 46.535156 "/>
<path style=" stroke:none;fill-rule:nonzero;fill:rgb(0%,0%,0%);fill-opacity:1;" d="M 52.382812 53.808594 L 52.382812 53.128906 L 55.085938 53.128906 C 55.445312 53.128906 55.722656 53.027344 55.917969 52.816406 C 56.109375 52.609375 56.207031 52.328125 56.207031 51.96875 L 56.207031 50.339844 L 56.183594 50.339844 C 56.050781 50.554688 55.878906 50.765625 55.671875 50.964844 C 55.464844 51.167969 55.21875 51.328125 54.929688 51.457031 C 54.648438 51.582031 54.320312 51.644531 53.949219 51.644531 C 53.402344 51.644531 52.921875 51.519531 52.507812 51.265625 C 52.101562 51.007812 51.78125 50.652344 51.550781 50.207031 C 51.328125 49.761719 51.21875 49.25 51.21875 48.679688 C 51.21875 48.121094 51.332031 47.621094 51.5625 47.183594 C 51.792969 46.738281 52.121094 46.382812 52.550781 46.125 C 52.980469 45.863281 53.496094 45.734375 54.09375 45.734375 C 54.664062 45.734375 55.164062 45.859375 55.59375 46.113281 C 56.03125 46.367188 56.371094 46.714844 56.617188 47.160156 C 56.863281 47.601562 56.984375 48.109375 56.984375 48.691406 L 56.984375 52.058594 C 56.984375 52.59375 56.828125 53.019531 56.515625 53.332031 C 56.207031 53.648438 55.78125 53.808594 55.238281 53.808594 Z M 54.074219 50.964844 C 54.488281 50.964844 54.855469 50.863281 55.171875 50.664062 C 55.492188 50.464844 55.738281 50.195312 55.917969 49.859375 C 56.101562 49.519531 56.195312 49.128906 56.195312 48.691406 C 56.195312 48.25 56.105469 47.859375 55.929688 47.519531 C 55.757812 47.175781 55.511719 46.90625 55.195312 46.703125 C 54.875 46.503906 54.507812 46.402344 54.085938 46.402344 C 53.65625 46.402344 53.28125 46.507812 52.960938 46.714844 C 52.652344 46.917969 52.414062 47.191406 52.25 47.539062 C 52.089844 47.882812 52.007812 48.277344 52.007812 48.722656 C 52.007812 49.140625 52.089844 49.519531 52.25 49.859375 C 52.414062 50.195312 52.652344 50.464844 52.960938 50.664062 C 53.273438 50.863281 53.644531 50.964844 54.074219 50.964844 Z M 54.074219 50.964844 "/>
<path style=" stroke:none;fill-rule:nonzero;fill:rgb(0%,0%,0%);fill-opacity:1;" d="M 44.628906 51.546875 L 44.628906 48.234375 C 44.628906 47.710938 44.746094 47.265625 44.972656 46.894531 C 45.210938 46.515625 45.527344 46.222656 45.917969 46.023438 C 46.3125 45.816406 46.746094 45.710938 47.21875 45.710938 C 47.699219 45.710938 48.132812 45.816406 48.519531 46.023438 C 48.910156 46.222656 49.222656 46.515625 49.449219 46.894531 C 49.6875 47.265625 49.804688 47.710938 49.804688 48.234375 L 49.804688 51.546875 L 49.027344 51.546875 L 49.027344 48.265625 C 49.027344 47.871094 48.945312 47.539062 48.773438 47.261719 C 48.601562 46.980469 48.378906 46.765625 48.09375 46.613281 C 47.820312 46.464844 47.527344 46.390625 47.207031 46.390625 C 46.894531 46.390625 46.601562 46.464844 46.328125 46.613281 C 46.054688 46.757812 45.832031 46.96875 45.664062 47.25 C 45.492188 47.527344 45.40625 47.863281 45.40625 48.265625 L 45.40625 51.546875 Z M 44.628906 51.546875 "/>
<path style=" stroke:none;fill-rule:nonzero;fill:rgb(0%,0%,0%);fill-opacity:1;" d="M 42.144531 51.546875 L 42.144531 45.855469 L 42.921875 45.855469 L 42.921875 51.546875 Z M 42.535156 44.828125 C 42.386719 44.828125 42.257812 44.773438 42.144531 44.660156 C 42.035156 44.550781 41.980469 44.421875 41.980469 44.273438 C 41.980469 44.117188 42.035156 43.984375 42.144531 43.882812 C 42.257812 43.769531 42.386719 43.714844 42.535156 43.714844 C 42.691406 43.714844 42.820312 43.769531 42.921875 43.882812 C 43.035156 43.984375 43.089844 44.117188 43.089844 44.273438 C 43.089844 44.421875 43.035156 44.550781 42.921875 44.660156 C 42.820312 44.773438 42.691406 44.828125 42.535156 44.828125 Z M 42.535156 44.828125 "/>
<path style=" stroke:none;fill-rule:nonzero;fill:rgb(0%,0%,0%);fill-opacity:1;" d="M 39.609375 51.546875 C 39.105469 51.546875 38.710938 51.402344 38.421875 51.109375 C 38.140625 50.820312 38 50.425781 38 49.929688 L 38 44.429688 L 38.777344 44.429688 L 38.777344 49.839844 C 38.777344 50.164062 38.859375 50.417969 39.019531 50.597656 C 39.191406 50.777344 39.4375 50.863281 39.765625 50.863281 L 40.851562 50.863281 L 40.851562 51.546875 Z M 37.011719 46.535156 L 37.011719 45.855469 L 40.875 45.855469 L 40.875 46.535156 Z M 37.011719 46.535156 "/>
<path style=" stroke:none;fill-rule:nonzero;fill:rgb(0%,0%,0%);fill-opacity:1;" d="M 35.820312 51.546875 C 35.234375 51.546875 34.714844 51.417969 34.253906 51.167969 C 33.796875 50.914062 33.433594 50.574219 33.167969 50.152344 C 32.898438 49.71875 32.765625 49.238281 32.765625 48.699219 C 32.765625 48.164062 32.898438 47.6875 33.167969 47.261719 C 33.433594 46.832031 33.796875 46.488281 34.253906 46.234375 C 34.714844 45.984375 35.234375 45.855469 35.820312 45.855469 L 36.464844 45.855469 L 36.464844 46.535156 L 35.765625 46.535156 C 35.359375 46.535156 34.988281 46.632812 34.65625 46.828125 C 34.320312 47.011719 34.054688 47.269531 33.855469 47.597656 C 33.65625 47.921875 33.554688 48.292969 33.554688 48.699219 C 33.554688 49.109375 33.65625 49.476562 33.855469 49.804688 C 34.054688 50.132812 34.320312 50.394531 34.65625 50.585938 C 34.988281 50.773438 35.359375 50.863281 35.765625 50.863281 L 36.464844 50.863281 L 36.464844 51.546875 Z M 35.820312 51.546875 "/>
<path style=" stroke:none;fill-rule:nonzero;fill:rgb(0%,0%,0%);fill-opacity:1;" d="M 29.574219 51.546875 C 28.96875 51.546875 28.425781 51.433594 27.941406 51.210938 C 27.46875 50.980469 27.089844 50.652344 26.808594 50.230469 C 26.535156 49.804688 26.398438 49.296875 26.398438 48.699219 C 26.398438 48.152344 26.511719 47.652344 26.734375 47.207031 C 26.953125 46.753906 27.265625 46.390625 27.664062 46.125 C 28.074219 45.855469 28.546875 45.722656 29.085938 45.722656 C 29.644531 45.722656 30.113281 45.84375 30.496094 46.089844 C 30.882812 46.335938 31.175781 46.667969 31.375 47.082031 C 31.574219 47.5 31.675781 47.96875 31.675781 48.488281 C 31.675781 48.5625 31.671875 48.644531 31.664062 48.734375 C 31.65625 48.824219 31.644531 48.902344 31.632812 48.96875 L 27.222656 48.96875 C 27.242188 49.386719 27.363281 49.734375 27.578125 50.015625 C 27.792969 50.300781 28.070312 50.511719 28.410156 50.652344 C 28.757812 50.792969 29.132812 50.863281 29.53125 50.863281 L 30.964844 50.863281 L 30.964844 51.546875 Z M 27.222656 48.410156 L 30.886719 48.410156 C 30.886719 48.261719 30.871094 48.097656 30.84375 47.917969 C 30.8125 47.734375 30.757812 47.550781 30.675781 47.375 C 30.601562 47.195312 30.496094 47.03125 30.355469 46.882812 C 30.21875 46.734375 30.046875 46.613281 29.832031 46.527344 C 29.625 46.429688 29.367188 46.378906 29.066406 46.378906 C 28.785156 46.378906 28.527344 46.441406 28.296875 46.558594 C 28.070312 46.679688 27.875 46.835938 27.722656 47.039062 C 27.566406 47.230469 27.441406 47.449219 27.355469 47.6875 C 27.273438 47.921875 27.230469 48.164062 27.222656 48.410156 Z M 27.222656 48.410156 "/>
<path style=" stroke:none;fill-rule:nonzero;fill:rgb(0%,0%,0%);fill-opacity:1;" d="M 19.8125 51.546875 L 19.8125 48.234375 C 19.8125 47.710938 19.925781 47.265625 20.15625 46.894531 C 20.390625 46.515625 20.707031 46.222656 21.097656 46.023438 C 21.492188 45.816406 21.925781 45.710938 22.398438 45.710938 C 22.878906 45.710938 23.3125 45.816406 23.699219 46.023438 C 24.089844 46.222656 24.402344 46.515625 24.632812 46.894531 C 24.867188 47.265625 24.988281 47.710938 24.988281 48.234375 L 24.988281 51.546875 L 24.210938 51.546875 L 24.210938 48.265625 C 24.210938 47.871094 24.125 47.539062 23.953125 47.261719 C 23.785156 46.980469 23.558594 46.765625 23.277344 46.613281 C 23.003906 46.464844 22.707031 46.390625 22.386719 46.390625 C 22.078125 46.390625 21.785156 46.464844 21.511719 46.613281 C 21.238281 46.757812 21.015625 46.96875 20.84375 47.25 C 20.671875 47.527344 20.589844 47.863281 20.589844 48.265625 L 20.589844 51.546875 Z M 19.8125 51.546875 "/>
<path style=" stroke:none;fill-rule:nonzero;fill:rgb(0%,0%,0%);fill-opacity:1;" d="M 12.921875 51.546875 L 12.921875 48.234375 C 12.921875 47.710938 13.039062 47.265625 13.265625 46.894531 C 13.503906 46.515625 13.820312 46.222656 14.210938 46.023438 C 14.605469 45.816406 15.035156 45.710938 15.511719 45.710938 C 15.992188 45.710938 16.425781 45.816406 16.808594 46.023438 C 17.203125 46.222656 17.515625 46.515625 17.742188 46.894531 C 17.980469 47.265625 18.097656 47.710938 18.097656 48.234375 L 18.097656 51.546875 L 17.320312 51.546875 L 17.320312 48.265625 C 17.320312 47.871094 17.234375 47.539062 17.066406 47.261719 C 16.894531 46.980469 16.667969 46.765625 16.386719 46.613281 C 16.113281 46.464844 15.816406 46.390625 15.5 46.390625 C 15.1875 46.390625 14.894531 46.464844 14.621094 46.613281 C 14.347656 46.757812 14.125 46.96875 13.957031 47.25 C 13.785156 47.527344 13.699219 47.863281 13.699219 48.265625 L 13.699219 51.546875 Z M 12.921875 51.546875 "/>
<path style=" stroke:none;fill-rule:nonzero;fill:rgb(0%,0%,0%);fill-opacity:1;" d="M 8.570312 51.691406 C 8 51.691406 7.492188 51.5625 7.046875 51.300781 C 6.601562 51.03125 6.253906 50.671875 6.003906 50.21875 C 5.75 49.765625 5.625 49.257812 5.625 48.699219 C 5.625 48.144531 5.75 47.636719 6.003906 47.183594 C 6.253906 46.730469 6.601562 46.375 7.046875 46.113281 C 7.492188 45.84375 8 45.710938 8.570312 45.710938 C 9.140625 45.710938 9.644531 45.84375 10.082031 46.113281 C 10.523438 46.375 10.871094 46.730469 11.125 47.183594 C 11.382812 47.628906 11.511719 48.136719 11.511719 48.699219 C 11.511719 49.257812 11.382812 49.765625 11.125 50.21875 C 10.871094 50.671875 10.523438 51.03125 10.082031 51.300781 C 9.644531 51.5625 9.140625 51.691406 8.570312 51.691406 Z M 8.570312 51.011719 C 8.992188 51.011719 9.367188 50.910156 9.691406 50.710938 C 10.015625 50.5 10.269531 50.222656 10.445312 49.871094 C 10.632812 49.523438 10.722656 49.132812 10.722656 48.699219 C 10.722656 48.269531 10.632812 47.878906 10.445312 47.53125 C 10.269531 47.179688 10.015625 46.90625 9.691406 46.703125 C 9.367188 46.496094 8.992188 46.390625 8.570312 46.390625 C 8.140625 46.390625 7.761719 46.496094 7.4375 46.703125 C 7.117188 46.90625 6.867188 47.179688 6.679688 47.53125 C 6.503906 47.878906 6.414062 48.269531 6.414062 48.699219 C 6.414062 49.132812 6.503906 49.523438 6.679688 49.871094 C 6.867188 50.222656 7.117188 50.5 7.4375 50.710938 C 7.761719 50.910156 8.140625 51.011719 8.570312 51.011719 Z M 8.570312 51.011719 "/>
<path style=" stroke:none;fill-rule:nonzero;fill:rgb(0%,0%,0%);fill-opacity:1;" d="M 4.058594 51.546875 C 3.476562 51.546875 2.953125 51.417969 2.492188 51.167969 C 2.035156 50.914062 1.671875 50.574219 1.40625 50.152344 C 1.136719 49.71875 1.003906 49.238281 1.003906 48.699219 C 1.003906 48.164062 1.136719 47.6875 1.40625 47.261719 C 1.671875 46.832031 2.035156 46.488281 2.492188 46.234375 C 2.953125 45.984375 3.476562 45.855469 4.058594 45.855469 L 4.703125 45.855469 L 4.703125 46.535156 L 4.003906 46.535156 C 3.597656 46.535156 3.226562 46.632812 2.894531 46.828125 C 2.558594 47.011719 2.292969 47.269531 2.09375 47.597656 C 1.894531 47.921875 1.792969 48.292969 1.792969 48.699219 C 1.792969 49.109375 1.894531 49.476562 2.09375 49.804688 C 2.292969 50.132812 2.558594 50.394531 2.894531 50.585938 C 3.226562 50.773438 3.597656 50.863281 4.003906 50.863281 L 4.703125 50.863281 L 4.703125 51.546875 Z M 4.058594 51.546875 "/>
</g>
</svg>
