<?xml version="1.0" encoding="UTF-8"?>
<svg xmlns="http://www.w3.org/2000/svg" xmlns:xlink="http://www.w3.org/1999/xlink" width="180px" height="48px" viewBox="0 0 179 48" version="1.1">
<g id="surface1">
<path style=" stroke:none;fill-rule:nonzero;fill:rgb(20%,16.078432%,36.862746%);fill-opacity:1;" d="M 159.726562 33.285156 C 157.695312 33.285156 155.90625 32.761719 154.355469 31.714844 C 152.804688 30.667969 151.597656 29.261719 150.730469 27.5 C 149.867188 25.703125 149.433594 23.6875 149.433594 21.441406 C 149.433594 19.109375 149.941406 17.03125 150.953125 15.207031 C 151.96875 13.351562 153.402344 11.886719 155.25 10.8125 C 157.128906 9.734375 159.335938 9.195312 161.875 9.195312 C 164.4375 9.195312 166.617188 9.734375 168.40625 10.8125 C 170.226562 11.859375 171.613281 13.308594 172.570312 15.164062 C 173.554688 16.988281 174.046875 19.035156 174.046875 21.308594 L 174.046875 28.261719 C 174.046875 30.738281 172.042969 32.746094 169.570312 32.746094 L 167.242188 32.746094 L 167.242188 29.070312 L 167.066406 29.070312 C 166.648438 29.875 166.109375 30.609375 165.453125 31.265625 C 164.796875 31.894531 163.992188 32.390625 163.039062 32.746094 C 162.113281 33.105469 161.007812 33.285156 159.726562 33.285156 Z M 161.785156 27.273438 C 162.828125 27.273438 163.738281 27.019531 164.515625 26.511719 C 165.320312 25.972656 165.929688 25.242188 166.347656 24.3125 C 166.765625 23.386719 166.976562 22.355469 166.976562 21.21875 C 166.976562 20.113281 166.765625 19.109375 166.347656 18.214844 C 165.929688 17.316406 165.320312 16.613281 164.515625 16.105469 C 163.738281 15.566406 162.828125 15.296875 161.785156 15.296875 C 160.710938 15.296875 159.769531 15.566406 158.964844 16.105469 C 158.160156 16.613281 157.546875 17.316406 157.128906 18.214844 C 156.710938 19.109375 156.503906 20.113281 156.503906 21.21875 C 156.503906 22.355469 156.710938 23.386719 157.128906 24.3125 C 157.546875 25.242188 158.160156 25.972656 158.964844 26.511719 C 159.769531 27.019531 160.710938 27.273438 161.785156 27.273438 Z M 161.785156 27.273438 "/>
<path style=" stroke:none;fill-rule:nonzero;fill:rgb(20%,16.078432%,36.862746%);fill-opacity:1;" d="M 133.089844 32.746094 L 133.089844 16.507812 C 133.089844 14.414062 133.6875 12.769531 134.878906 11.574219 C 136.070312 10.378906 137.726562 9.78125 139.847656 9.78125 L 146.515625 9.78125 L 146.515625 10.945312 C 146.515625 13.421875 144.511719 15.433594 142.039062 15.433594 L 141.546875 15.433594 C 141.128906 15.433594 140.769531 15.582031 140.472656 15.878906 C 140.175781 16.148438 140.027344 16.507812 140.027344 16.957031 L 140.027344 32.746094 Z M 133.089844 32.746094 "/>
<path style=" stroke:none;fill-rule:nonzero;fill:rgb(20%,16.078432%,36.862746%);fill-opacity:1;" d="M 115.859375 33.285156 C 113.5 33.285156 111.382812 32.761719 109.503906 31.714844 C 107.625 30.667969 106.132812 29.234375 105.027344 27.410156 C 103.953125 25.585938 103.417969 23.535156 103.417969 21.261719 C 103.417969 18.960938 103.953125 16.914062 105.027344 15.117188 C 106.132812 13.292969 107.625 11.859375 109.503906 10.8125 C 111.382812 9.734375 113.5 9.195312 115.859375 9.195312 C 118.214844 9.195312 120.316406 9.734375 122.167969 10.8125 C 124.046875 11.859375 125.523438 13.292969 126.597656 15.117188 C 127.703125 16.914062 128.253906 18.960938 128.253906 21.261719 C 128.253906 23.535156 127.703125 25.585938 126.597656 27.410156 C 125.523438 29.234375 124.046875 30.667969 122.167969 31.714844 C 120.289062 32.761719 118.183594 33.285156 115.859375 33.285156 Z M 115.859375 27.230469 C 116.960938 27.230469 117.917969 26.960938 118.722656 26.421875 C 119.527344 25.882812 120.152344 25.167969 120.601562 24.269531 C 121.050781 23.371094 121.273438 22.355469 121.273438 21.21875 C 121.273438 20.113281 121.050781 19.109375 120.601562 18.214844 C 120.152344 17.316406 119.527344 16.597656 118.722656 16.058594 C 117.917969 15.523438 116.960938 15.253906 115.859375 15.253906 C 114.753906 15.253906 113.785156 15.523438 112.949219 16.058594 C 112.144531 16.597656 111.515625 17.316406 111.070312 18.214844 C 110.621094 19.109375 110.398438 20.113281 110.398438 21.21875 C 110.398438 22.355469 110.621094 23.371094 111.070312 24.269531 C 111.515625 25.167969 112.144531 25.882812 112.949219 26.421875 C 113.785156 26.960938 114.753906 27.230469 115.859375 27.230469 Z M 115.859375 27.230469 "/>
<path style=" stroke:none;fill-rule:nonzero;fill:rgb(20%,16.078432%,36.862746%);fill-opacity:1;" d="M 75.628906 32.746094 L 75.628906 19.515625 C 75.628906 17.601562 76.089844 15.867188 77.015625 14.308594 C 77.941406 12.753906 79.253906 11.515625 80.953125 10.585938 C 82.683594 9.660156 84.726562 9.195312 87.082031 9.195312 C 89.46875 9.195312 91.5 9.660156 93.171875 10.585938 C 94.871094 11.515625 96.167969 12.753906 97.0625 14.308594 C 97.957031 15.867188 98.40625 17.601562 98.40625 19.515625 L 98.40625 28.261719 C 98.40625 30.738281 96.402344 32.746094 93.929688 32.746094 L 91.46875 32.746094 L 91.46875 19.695312 C 91.46875 18.886719 91.273438 18.152344 90.886719 17.496094 C 90.5 16.808594 89.960938 16.269531 89.277344 15.878906 C 88.621094 15.460938 87.875 15.253906 87.039062 15.253906 C 86.171875 15.253906 85.398438 15.460938 84.710938 15.878906 C 84.054688 16.269531 83.535156 16.808594 83.144531 17.496094 C 82.757812 18.152344 82.5625 18.886719 82.5625 19.695312 L 82.5625 28.261719 C 82.5625 30.738281 80.5625 32.746094 78.089844 32.746094 Z M 75.628906 32.746094 "/>
<path style=" stroke:none;fill-rule:nonzero;fill:rgb(20%,16.078432%,36.862746%);fill-opacity:1;" d="M 47.8125 32.746094 L 47.8125 0 L 50.273438 0 C 52.746094 0 54.75 2.007812 54.75 4.484375 L 54.75 18.4375 L 57.792969 18.4375 L 63.027344 9.734375 L 70.769531 9.734375 L 64.59375 19.335938 C 66.382812 20.082031 67.773438 21.234375 68.757812 22.789062 C 69.769531 24.3125 70.277344 26.109375 70.277344 28.171875 L 70.277344 28.261719 C 70.277344 30.738281 68.273438 32.746094 65.800781 32.746094 L 63.296875 32.746094 L 63.296875 28.171875 C 63.296875 27.335938 63.085938 26.585938 62.671875 25.929688 C 62.28125 25.242188 61.761719 24.703125 61.105469 24.3125 C 60.449219 23.925781 59.703125 23.730469 58.867188 23.730469 L 54.75 23.730469 L 54.75 28.261719 C 54.75 30.738281 52.746094 32.746094 50.273438 32.746094 Z M 47.8125 32.746094 "/>
<path style=" stroke:none;fill-rule:nonzero;fill:rgb(20%,16.078432%,36.862746%);fill-opacity:1;" d="M 33.390625 32.746094 C 30.792969 32.746094 28.511719 32.269531 26.542969 31.3125 C 24.574219 30.324219 23.039062 28.980469 21.933594 27.273438 C 20.859375 25.539062 20.324219 23.535156 20.324219 21.261719 C 20.324219 18.75 20.84375 16.597656 21.890625 14.804688 C 22.933594 13.007812 24.320312 11.632812 26.050781 10.675781 C 27.8125 9.691406 29.75 9.195312 31.867188 9.195312 C 34.285156 9.195312 36.296875 9.703125 37.910156 10.722656 C 39.550781 11.738281 40.789062 13.128906 41.625 14.894531 C 42.457031 16.628906 42.875 18.617188 42.875 20.859375 C 42.875 21.25 42.847656 21.710938 42.785156 22.25 C 42.746094 22.957031 42.144531 23.460938 41.4375 23.460938 L 27.617188 23.460938 C 27.796875 24.238281 28.140625 24.898438 28.644531 25.433594 C 29.152344 25.972656 29.792969 26.378906 30.570312 26.648438 C 31.347656 26.886719 32.210938 27.003906 33.164062 27.003906 L 40.191406 27.003906 L 40.191406 28.261719 C 40.191406 30.738281 38.1875 32.746094 35.714844 32.746094 Z M 27.4375 19.109375 L 36.164062 19.109375 C 36.105469 18.632812 36.015625 18.167969 35.894531 17.71875 C 35.777344 17.269531 35.582031 16.882812 35.3125 16.554688 C 35.074219 16.195312 34.792969 15.894531 34.464844 15.65625 C 34.136719 15.386719 33.746094 15.175781 33.300781 15.027344 C 32.882812 14.878906 32.40625 14.804688 31.867188 14.804688 C 31.183594 14.804688 30.570312 14.921875 30.03125 15.164062 C 29.496094 15.402344 29.046875 15.730469 28.691406 16.148438 C 28.332031 16.539062 28.050781 17 27.839844 17.539062 C 27.660156 18.046875 27.527344 18.570312 27.4375 19.109375 Z M 27.4375 19.109375 "/>
<path style=" stroke:none;fill-rule:nonzero;fill:rgb(20%,16.078432%,36.862746%);fill-opacity:1;" d="M 10.515625 32.746094 C 8.398438 32.746094 6.742188 32.148438 5.550781 30.953125 C 4.355469 29.726562 3.757812 28.082031 3.757812 26.019531 L 3.757812 9.957031 L 10.738281 9.957031 L 10.738281 25.613281 C 10.738281 25.972656 10.859375 26.289062 11.097656 26.558594 C 11.367188 26.796875 11.679688 26.914062 12.039062 26.914062 L 17.050781 26.914062 L 17.050781 28.261719 C 17.050781 30.738281 15.046875 32.746094 12.574219 32.746094 Z M 0 15.433594 L 0 9.734375 L 17.050781 9.734375 L 17.050781 15.433594 Z M 0 15.433594 "/>
<path style=" stroke:none;fill-rule:nonzero;fill:rgb(100%,39.215687%,35.294119%);fill-opacity:1;" d="M 4.429688 2.691406 L 11.144531 2.691406 L 11.144531 5.382812 C 11.144531 7.859375 9.140625 9.871094 6.667969 9.871094 L 4.429688 9.871094 Z M 4.429688 2.691406 "/>
<path style=" stroke:none;fill-rule:nonzero;fill:rgb(20%,16.078432%,36.862746%);fill-opacity:1;" d="M 175.421875 5.980469 C 177.066406 5.980469 178.402344 7.320312 178.402344 8.972656 C 178.402344 10.625 177.066406 11.960938 175.421875 11.960938 C 173.773438 11.960938 172.4375 10.625 172.4375 8.972656 C 172.4375 7.320312 173.773438 5.980469 175.421875 5.980469 Z M 175.421875 6.578125 C 174.785156 6.578125 174.179688 6.832031 173.734375 7.28125 C 173.285156 7.730469 173.035156 8.335938 173.035156 8.972656 C 173.035156 9.605469 173.285156 10.214844 173.734375 10.664062 C 174.179688 11.113281 174.785156 11.363281 175.421875 11.363281 C 176.054688 11.363281 176.660156 11.113281 177.109375 10.664062 C 177.554688 10.214844 177.804688 9.605469 177.804688 8.972656 C 177.804688 8.335938 177.554688 7.730469 177.109375 7.28125 C 176.660156 6.832031 176.054688 6.578125 175.421875 6.578125 Z M 175.570312 7.476562 C 175.796875 7.476562 176.019531 7.550781 176.199219 7.6875 C 176.382812 7.828125 176.511719 8.019531 176.574219 8.242188 C 176.636719 8.460938 176.625 8.695312 176.539062 8.90625 C 176.457031 9.121094 176.308594 9.296875 176.113281 9.417969 L 176.871094 10.46875 L 176.132812 10.46875 L 175.484375 9.570312 L 174.824219 9.570312 L 174.824219 10.46875 L 174.226562 10.46875 L 174.226562 7.476562 Z M 175.570312 8.074219 L 174.824219 8.074219 L 174.824219 8.972656 L 175.570312 8.972656 C 175.679688 8.972656 175.789062 8.929688 175.871094 8.855469 C 175.953125 8.78125 176.003906 8.675781 176.015625 8.566406 L 176.015625 8.523438 C 176.015625 8.402344 175.96875 8.289062 175.886719 8.207031 C 175.800781 8.121094 175.6875 8.074219 175.570312 8.074219 Z M 175.570312 8.074219 "/>
<path style=" stroke:none;fill-rule:nonzero;fill:rgb(0%,0%,0%);fill-opacity:1;" d="M 169.152344 45.820312 L 169.152344 45.214844 L 171.527344 45.214844 C 171.730469 45.214844 171.902344 45.171875 172.039062 45.085938 C 172.179688 45 172.285156 44.886719 172.355469 44.746094 C 172.4375 44.609375 172.476562 44.464844 172.476562 44.320312 C 172.476562 44.175781 172.441406 44.042969 172.375 43.925781 C 172.308594 43.796875 172.214844 43.695312 172.089844 43.617188 C 171.964844 43.539062 171.804688 43.496094 171.613281 43.496094 L 170.554688 43.496094 C 170.234375 43.496094 169.953125 43.445312 169.714844 43.339844 C 169.484375 43.226562 169.304688 43.066406 169.179688 42.863281 C 169.0625 42.660156 169.003906 42.421875 169.003906 42.148438 C 169.003906 41.90625 169.0625 41.675781 169.179688 41.464844 C 169.300781 41.253906 169.46875 41.085938 169.6875 40.960938 C 169.902344 40.828125 170.15625 40.761719 170.449219 40.761719 L 172.730469 40.761719 L 172.730469 41.367188 L 170.515625 41.367188 C 170.257812 41.367188 170.058594 41.445312 169.914062 41.605469 C 169.769531 41.757812 169.695312 41.929688 169.695312 42.128906 C 169.695312 42.320312 169.769531 42.492188 169.914062 42.644531 C 170.058594 42.796875 170.277344 42.875 170.566406 42.875 L 171.554688 42.875 C 171.910156 42.875 172.207031 42.933594 172.445312 43.050781 C 172.6875 43.171875 172.871094 43.335938 172.988281 43.546875 C 173.113281 43.757812 173.175781 44.007812 173.175781 44.292969 C 173.175781 44.550781 173.113281 44.796875 172.980469 45.035156 C 172.847656 45.265625 172.667969 45.453125 172.4375 45.601562 C 172.210938 45.746094 171.949219 45.820312 171.644531 45.820312 Z M 169.152344 45.820312 "/>
<path style=" stroke:none;fill-rule:nonzero;fill:rgb(0%,0%,0%);fill-opacity:1;" d="M 166.152344 45.816406 C 165.609375 45.816406 165.125 45.71875 164.699219 45.519531 C 164.277344 45.316406 163.9375 45.023438 163.6875 44.648438 C 163.445312 44.269531 163.324219 43.820312 163.324219 43.289062 C 163.324219 42.800781 163.421875 42.359375 163.621094 41.960938 C 163.816406 41.558594 164.09375 41.238281 164.449219 41 C 164.8125 40.761719 165.234375 40.640625 165.714844 40.640625 C 166.210938 40.640625 166.628906 40.75 166.972656 40.96875 C 167.316406 41.1875 167.578125 41.480469 167.753906 41.851562 C 167.933594 42.222656 168.019531 42.636719 168.019531 43.101562 C 168.019531 43.167969 168.019531 43.238281 168.011719 43.320312 C 168.003906 43.398438 167.996094 43.46875 167.980469 43.527344 L 164.054688 43.527344 C 164.074219 43.898438 164.179688 44.207031 164.371094 44.460938 C 164.5625 44.710938 164.808594 44.898438 165.113281 45.023438 C 165.421875 45.152344 165.757812 45.214844 166.113281 45.214844 L 167.386719 45.214844 L 167.386719 45.816406 Z M 164.054688 43.03125 L 167.320312 43.03125 C 167.320312 42.898438 167.304688 42.753906 167.28125 42.59375 C 167.253906 42.429688 167.203125 42.269531 167.132812 42.109375 C 167.066406 41.949219 166.96875 41.804688 166.84375 41.671875 C 166.726562 41.539062 166.570312 41.433594 166.378906 41.355469 C 166.195312 41.269531 165.96875 41.226562 165.695312 41.226562 C 165.445312 41.226562 165.21875 41.28125 165.015625 41.386719 C 164.808594 41.492188 164.636719 41.632812 164.5 41.8125 C 164.363281 41.984375 164.253906 42.175781 164.171875 42.386719 C 164.101562 42.597656 164.0625 42.8125 164.054688 43.03125 Z M 164.054688 43.03125 "/>
<path style=" stroke:none;fill-rule:nonzero;fill:rgb(0%,0%,0%);fill-opacity:1;" d="M 161.378906 45.816406 L 161.378906 40.761719 L 162.070312 40.761719 L 162.070312 45.816406 Z M 161.722656 39.847656 C 161.59375 39.847656 161.476562 39.796875 161.378906 39.699219 C 161.277344 39.601562 161.230469 39.484375 161.230469 39.351562 C 161.230469 39.214844 161.277344 39.097656 161.378906 39.003906 C 161.476562 38.90625 161.59375 38.855469 161.722656 38.855469 C 161.863281 38.855469 161.976562 38.90625 162.070312 39.003906 C 162.167969 39.097656 162.21875 39.214844 162.21875 39.351562 C 162.21875 39.484375 162.167969 39.601562 162.070312 39.699219 C 161.976562 39.796875 161.863281 39.847656 161.722656 39.847656 Z M 161.722656 39.847656 "/>
<path style=" stroke:none;fill-rule:nonzero;fill:rgb(0%,0%,0%);fill-opacity:1;" d="M 159.117188 45.816406 C 158.671875 45.816406 158.316406 45.6875 158.058594 45.429688 C 157.808594 45.171875 157.683594 44.824219 157.683594 44.378906 L 157.683594 39.492188 L 158.375 39.492188 L 158.375 44.300781 C 158.375 44.59375 158.449219 44.816406 158.59375 44.976562 C 158.746094 45.132812 158.964844 45.214844 159.257812 45.214844 L 160.226562 45.214844 L 160.226562 45.816406 Z M 156.804688 41.367188 L 156.804688 40.761719 L 160.246094 40.761719 L 160.246094 41.367188 Z M 156.804688 41.367188 "/>
<path style=" stroke:none;fill-rule:nonzero;fill:rgb(0%,0%,0%);fill-opacity:1;" d="M 155.195312 45.816406 L 155.195312 40.761719 L 155.886719 40.761719 L 155.886719 45.816406 Z M 155.542969 39.847656 C 155.410156 39.847656 155.292969 39.796875 155.195312 39.699219 C 155.097656 39.601562 155.046875 39.484375 155.046875 39.351562 C 155.046875 39.214844 155.097656 39.097656 155.195312 39.003906 C 155.292969 38.90625 155.410156 38.855469 155.542969 38.855469 C 155.679688 38.855469 155.792969 38.90625 155.886719 39.003906 C 155.988281 39.097656 156.035156 39.214844 156.035156 39.351562 C 156.035156 39.484375 155.988281 39.601562 155.886719 39.699219 C 155.792969 39.796875 155.679688 39.847656 155.542969 39.847656 Z M 155.542969 39.847656 "/>
<path style=" stroke:none;fill-rule:nonzero;fill:rgb(0%,0%,0%);fill-opacity:1;" d="M 149.058594 45.820312 L 149.058594 42.875 C 149.058594 42.410156 149.164062 42.015625 149.367188 41.683594 C 149.578125 41.347656 149.859375 41.089844 150.207031 40.910156 C 150.558594 40.726562 150.945312 40.632812 151.367188 40.632812 C 151.792969 40.632812 152.179688 40.726562 152.523438 40.910156 C 152.871094 41.089844 153.148438 41.347656 153.355469 41.683594 C 153.566406 42.015625 153.671875 42.410156 153.671875 42.875 L 153.671875 45.820312 L 152.976562 45.820312 L 152.976562 42.902344 C 152.976562 42.554688 152.902344 42.253906 152.75 42.011719 C 152.597656 41.757812 152.398438 41.566406 152.148438 41.433594 C 151.902344 41.304688 151.640625 41.238281 151.355469 41.238281 C 151.078125 41.238281 150.816406 41.304688 150.574219 41.433594 C 150.328125 41.5625 150.132812 41.75 149.980469 42 C 149.828125 42.246094 149.753906 42.546875 149.753906 42.902344 L 149.753906 45.820312 Z M 149.058594 45.820312 "/>
<path style=" stroke:none;fill-rule:nonzero;fill:rgb(0%,0%,0%);fill-opacity:1;" d="M 145.222656 45.945312 C 144.800781 45.945312 144.414062 45.859375 144.0625 45.679688 C 143.714844 45.496094 143.433594 45.234375 143.222656 44.894531 C 143.019531 44.558594 142.917969 44.164062 142.917969 43.707031 L 142.917969 40.761719 L 143.609375 40.761719 L 143.609375 43.675781 C 143.609375 44.027344 143.683594 44.328125 143.835938 44.578125 C 143.996094 44.828125 144.195312 45.023438 144.441406 45.152344 C 144.683594 45.28125 144.945312 45.34375 145.222656 45.34375 C 145.503906 45.34375 145.769531 45.277344 146.011719 45.144531 C 146.261719 45.011719 146.464844 44.824219 146.617188 44.578125 C 146.769531 44.328125 146.84375 44.027344 146.84375 43.675781 L 146.84375 40.761719 L 147.535156 40.761719 L 147.535156 43.707031 C 147.535156 44.164062 147.433594 44.558594 147.230469 44.894531 C 147.023438 45.234375 146.75 45.496094 146.398438 45.679688 C 146.050781 45.859375 145.65625 45.945312 145.222656 45.945312 Z M 145.222656 45.945312 "/>
<path style=" stroke:none;fill-rule:nonzero;fill:rgb(0%,0%,0%);fill-opacity:1;" d="M 140.65625 45.816406 C 140.210938 45.816406 139.855469 45.6875 139.597656 45.429688 C 139.347656 45.171875 139.222656 44.824219 139.222656 44.378906 L 139.222656 39.492188 L 139.914062 39.492188 L 139.914062 44.300781 C 139.914062 44.59375 139.988281 44.816406 140.132812 44.976562 C 140.285156 45.132812 140.507812 45.214844 140.796875 45.214844 L 141.765625 45.214844 L 141.765625 45.816406 Z M 138.34375 41.367188 L 138.34375 40.761719 L 141.785156 40.761719 L 141.785156 41.367188 Z M 138.34375 41.367188 "/>
<path style=" stroke:none;fill-rule:nonzero;fill:rgb(0%,0%,0%);fill-opacity:1;" d="M 135.554688 45.820312 L 135.554688 42.199219 C 135.554688 41.75 135.679688 41.398438 135.929688 41.148438 C 136.1875 40.890625 136.542969 40.761719 136.988281 40.761719 L 137.859375 40.761719 L 137.859375 41.367188 L 137.128906 41.367188 C 136.839844 41.367188 136.617188 41.445312 136.464844 41.605469 C 136.320312 41.761719 136.246094 41.988281 136.246094 42.277344 L 136.246094 45.820312 Z M 135.554688 45.820312 "/>
<path style=" stroke:none;fill-rule:nonzero;fill:rgb(0%,0%,0%);fill-opacity:1;" d="M 131.699219 45.945312 C 131.191406 45.945312 130.738281 45.832031 130.34375 45.601562 C 129.949219 45.363281 129.636719 45.042969 129.414062 44.636719 C 129.1875 44.234375 129.078125 43.785156 129.078125 43.289062 C 129.078125 42.792969 129.1875 42.34375 129.414062 41.941406 C 129.636719 41.539062 129.949219 41.21875 130.34375 40.988281 C 130.738281 40.75 131.191406 40.632812 131.699219 40.632812 C 132.207031 40.632812 132.65625 40.75 133.042969 40.988281 C 133.4375 41.21875 133.75 41.539062 133.972656 41.941406 C 134.203125 42.335938 134.320312 42.789062 134.320312 43.289062 C 134.320312 43.785156 134.203125 44.234375 133.972656 44.636719 C 133.75 45.042969 133.4375 45.363281 133.042969 45.601562 C 132.65625 45.832031 132.207031 45.945312 131.699219 45.945312 Z M 131.699219 45.34375 C 132.074219 45.34375 132.40625 45.253906 132.699219 45.074219 C 132.988281 44.890625 133.210938 44.640625 133.371094 44.332031 C 133.535156 44.019531 133.617188 43.671875 133.617188 43.289062 C 133.617188 42.90625 133.535156 42.558594 133.371094 42.25 C 133.210938 41.9375 132.988281 41.691406 132.699219 41.515625 C 132.40625 41.328125 132.074219 41.238281 131.699219 41.238281 C 131.316406 41.238281 130.980469 41.328125 130.6875 41.515625 C 130.40625 41.691406 130.179688 41.9375 130.015625 42.25 C 129.859375 42.558594 129.78125 42.90625 129.78125 43.289062 C 129.78125 43.671875 129.859375 44.019531 130.015625 44.332031 C 130.179688 44.640625 130.40625 44.890625 130.6875 45.074219 C 130.980469 45.253906 131.316406 45.34375 131.699219 45.34375 Z M 131.699219 45.34375 "/>
<path style=" stroke:none;fill-rule:nonzero;fill:rgb(0%,0%,0%);fill-opacity:1;" d="M 125.53125 40.632812 C 125.886719 40.632812 126.21875 40.695312 126.527344 40.820312 C 126.839844 40.941406 127.109375 41.113281 127.339844 41.347656 C 127.578125 41.578125 127.761719 41.863281 127.894531 42.199219 C 128.027344 42.53125 128.089844 42.90625 128.089844 43.328125 C 128.089844 43.863281 127.980469 44.328125 127.753906 44.71875 C 127.53125 45.109375 127.230469 45.410156 126.855469 45.621094 C 126.484375 45.832031 126.074219 45.9375 125.617188 45.9375 C 125.339844 45.9375 125.078125 45.886719 124.828125 45.789062 C 124.578125 45.691406 124.351562 45.554688 124.15625 45.382812 C 123.957031 45.203125 123.800781 45.003906 123.6875 44.777344 L 123.667969 44.777344 L 123.667969 48 L 122.976562 48 L 122.976562 43.28125 C 122.976562 42.710938 123.09375 42.230469 123.324219 41.84375 C 123.554688 41.445312 123.863281 41.144531 124.253906 40.941406 C 124.644531 40.734375 125.066406 40.632812 125.53125 40.632812 Z M 125.519531 41.238281 C 125.191406 41.238281 124.882812 41.316406 124.601562 41.476562 C 124.324219 41.632812 124.097656 41.867188 123.925781 42.167969 C 123.761719 42.472656 123.679688 42.84375 123.679688 43.28125 C 123.679688 43.710938 123.765625 44.078125 123.9375 44.390625 C 124.109375 44.695312 124.335938 44.929688 124.621094 45.09375 C 124.902344 45.253906 125.210938 45.332031 125.539062 45.332031 C 125.871094 45.332031 126.171875 45.25 126.449219 45.085938 C 126.734375 44.917969 126.960938 44.683594 127.132812 44.378906 C 127.304688 44.070312 127.390625 43.707031 127.390625 43.289062 C 127.390625 42.859375 127.304688 42.492188 127.132812 42.1875 C 126.960938 41.878906 126.734375 41.644531 126.449219 41.484375 C 126.164062 41.320312 125.855469 41.238281 125.519531 41.238281 Z M 125.519531 41.238281 "/>
<path style=" stroke:none;fill-rule:nonzero;fill:rgb(0%,0%,0%);fill-opacity:1;" d="M 119.183594 40.632812 C 119.539062 40.632812 119.871094 40.695312 120.183594 40.820312 C 120.492188 40.941406 120.761719 41.113281 120.992188 41.347656 C 121.230469 41.578125 121.414062 41.863281 121.546875 42.199219 C 121.679688 42.53125 121.746094 42.90625 121.746094 43.328125 C 121.746094 43.863281 121.632812 44.328125 121.410156 44.71875 C 121.183594 45.109375 120.882812 45.410156 120.507812 45.621094 C 120.140625 45.832031 119.726562 45.9375 119.273438 45.9375 C 118.996094 45.9375 118.730469 45.886719 118.480469 45.789062 C 118.230469 45.691406 118.003906 45.554688 117.808594 45.382812 C 117.609375 45.203125 117.453125 45.003906 117.34375 44.777344 L 117.324219 44.777344 L 117.324219 48 L 116.628906 48 L 116.628906 43.28125 C 116.628906 42.710938 116.746094 42.230469 116.976562 41.84375 C 117.207031 41.445312 117.515625 41.144531 117.90625 40.941406 C 118.296875 40.734375 118.722656 40.632812 119.183594 40.632812 Z M 119.171875 41.238281 C 118.84375 41.238281 118.535156 41.316406 118.253906 41.476562 C 117.976562 41.632812 117.75 41.867188 117.582031 42.167969 C 117.414062 42.472656 117.332031 42.84375 117.332031 43.28125 C 117.332031 43.710938 117.417969 44.078125 117.589844 44.390625 C 117.761719 44.695312 117.988281 44.929688 118.273438 45.09375 C 118.554688 45.253906 118.863281 45.332031 119.191406 45.332031 C 119.523438 45.332031 119.824219 45.25 120.101562 45.085938 C 120.386719 44.917969 120.613281 44.683594 120.785156 44.378906 C 120.957031 44.070312 121.042969 43.707031 121.042969 43.289062 C 121.042969 42.859375 120.957031 42.492188 120.785156 42.1875 C 120.613281 41.878906 120.386719 41.644531 120.101562 41.484375 C 119.820312 41.320312 119.507812 41.238281 119.171875 41.238281 Z M 119.171875 41.238281 "/>
<path style=" stroke:none;fill-rule:nonzero;fill:rgb(0%,0%,0%);fill-opacity:1;" d="M 112.773438 45.945312 C 112.265625 45.945312 111.816406 45.832031 111.417969 45.601562 C 111.023438 45.363281 110.714844 45.042969 110.488281 44.636719 C 110.265625 44.234375 110.152344 43.785156 110.152344 43.289062 C 110.152344 42.792969 110.265625 42.34375 110.488281 41.941406 C 110.714844 41.539062 111.023438 41.21875 111.417969 40.988281 C 111.816406 40.75 112.265625 40.632812 112.773438 40.632812 C 113.28125 40.632812 113.730469 40.75 114.121094 40.988281 C 114.515625 41.21875 114.824219 41.539062 115.050781 41.941406 C 115.28125 42.335938 115.394531 42.789062 115.394531 43.289062 C 115.394531 43.785156 115.28125 44.234375 115.050781 44.636719 C 114.824219 45.042969 114.515625 45.363281 114.121094 45.601562 C 113.730469 45.832031 113.28125 45.945312 112.773438 45.945312 Z M 112.773438 45.34375 C 113.148438 45.34375 113.484375 45.253906 113.773438 45.074219 C 114.0625 44.890625 114.289062 44.640625 114.445312 44.332031 C 114.609375 44.019531 114.691406 43.671875 114.691406 43.289062 C 114.691406 42.90625 114.609375 42.558594 114.445312 42.25 C 114.289062 41.9375 114.0625 41.691406 113.773438 41.515625 C 113.484375 41.328125 113.148438 41.238281 112.773438 41.238281 C 112.390625 41.238281 112.054688 41.328125 111.765625 41.515625 C 111.480469 41.691406 111.257812 41.9375 111.09375 42.25 C 110.933594 42.558594 110.855469 42.90625 110.855469 43.289062 C 110.855469 43.671875 110.933594 44.019531 111.09375 44.332031 C 111.257812 44.640625 111.480469 44.890625 111.765625 45.074219 C 112.054688 45.253906 112.390625 45.34375 112.773438 45.34375 Z M 112.773438 45.34375 "/>
<path style=" stroke:none;fill-rule:nonzero;fill:rgb(0%,0%,0%);fill-opacity:1;" d="M 101.550781 45.820312 L 101.550781 38.578125 L 102.242188 38.578125 L 102.242188 41.5625 C 102.441406 41.253906 102.699219 41.023438 103.015625 40.871094 C 103.339844 40.710938 103.679688 40.632812 104.035156 40.632812 C 104.457031 40.632812 104.835938 40.726562 105.171875 40.910156 C 105.515625 41.089844 105.785156 41.347656 105.984375 41.683594 C 106.179688 42.015625 106.28125 42.410156 106.28125 42.875 L 106.28125 45.820312 L 105.585938 45.820312 L 105.585938 42.902344 C 105.585938 42.550781 105.503906 42.253906 105.339844 42.011719 C 105.183594 41.757812 104.972656 41.566406 104.714844 41.433594 C 104.464844 41.304688 104.195312 41.238281 103.90625 41.238281 C 103.628906 41.238281 103.363281 41.304688 103.105469 41.433594 C 102.847656 41.5625 102.640625 41.746094 102.480469 41.992188 C 102.324219 42.234375 102.242188 42.53125 102.242188 42.882812 L 102.242188 45.820312 Z M 101.550781 45.820312 "/>
<path style=" stroke:none;fill-rule:nonzero;fill:rgb(0%,0%,0%);fill-opacity:1;" d="M 99.292969 45.816406 C 98.84375 45.816406 98.492188 45.6875 98.234375 45.429688 C 97.984375 45.171875 97.859375 44.824219 97.859375 44.378906 L 97.859375 39.492188 L 98.550781 39.492188 L 98.550781 44.300781 C 98.550781 44.59375 98.625 44.816406 98.769531 44.976562 C 98.917969 45.132812 99.140625 45.214844 99.429688 45.214844 L 100.398438 45.214844 L 100.398438 45.816406 Z M 96.976562 41.367188 L 96.976562 40.761719 L 100.421875 40.761719 L 100.421875 41.367188 Z M 96.976562 41.367188 "/>
<path style=" stroke:none;fill-rule:nonzero;fill:rgb(0%,0%,0%);fill-opacity:1;" d="M 95.367188 45.816406 L 95.367188 40.761719 L 96.0625 40.761719 L 96.0625 45.816406 Z M 95.714844 39.847656 C 95.582031 39.847656 95.46875 39.796875 95.367188 39.699219 C 95.269531 39.601562 95.21875 39.484375 95.21875 39.351562 C 95.21875 39.214844 95.269531 39.097656 95.367188 39.003906 C 95.46875 38.90625 95.582031 38.855469 95.714844 38.855469 C 95.855469 38.855469 95.96875 38.90625 96.0625 39.003906 C 96.160156 39.097656 96.210938 39.214844 96.210938 39.351562 C 96.210938 39.484375 96.160156 39.601562 96.0625 39.699219 C 95.96875 39.796875 95.855469 39.847656 95.714844 39.847656 Z M 95.714844 39.847656 "/>
<path style=" stroke:none;fill-rule:nonzero;fill:rgb(0%,0%,0%);fill-opacity:1;" d="M 87.320312 45.945312 C 87.03125 45.945312 86.761719 45.886719 86.519531 45.769531 C 86.273438 45.648438 86.082031 45.464844 85.9375 45.214844 C 85.796875 44.960938 85.726562 44.636719 85.726562 44.230469 L 85.726562 40.761719 L 86.421875 40.761719 L 86.421875 44.371094 C 86.421875 44.59375 86.464844 44.78125 86.546875 44.925781 C 86.632812 45.066406 86.742188 45.171875 86.875 45.242188 C 87.015625 45.308594 87.164062 45.34375 87.320312 45.34375 C 87.472656 45.34375 87.617188 45.308594 87.753906 45.242188 C 87.894531 45.171875 88.007812 45.0625 88.09375 44.917969 C 88.175781 44.769531 88.21875 44.589844 88.21875 44.371094 L 88.21875 42.289062 C 88.21875 41.90625 88.289062 41.589844 88.429688 41.347656 C 88.574219 41.101562 88.765625 40.921875 89.003906 40.8125 C 89.238281 40.691406 89.5 40.632812 89.785156 40.632812 C 90.066406 40.632812 90.328125 40.691406 90.566406 40.8125 C 90.800781 40.921875 90.992188 41.101562 91.128906 41.347656 C 91.273438 41.589844 91.347656 41.90625 91.347656 42.289062 L 91.347656 44.371094 C 91.347656 44.589844 91.390625 44.769531 91.476562 44.917969 C 91.5625 45.0625 91.671875 45.171875 91.8125 45.242188 C 91.957031 45.308594 92.109375 45.34375 92.265625 45.34375 C 92.417969 45.34375 92.558594 45.308594 92.691406 45.242188 C 92.832031 45.171875 92.941406 45.0625 93.027344 44.917969 C 93.113281 44.769531 93.15625 44.589844 93.15625 44.371094 L 93.15625 40.761719 L 93.847656 40.761719 L 93.847656 44.230469 C 93.847656 44.636719 93.777344 44.960938 93.632812 45.214844 C 93.492188 45.464844 93.300781 45.648438 93.058594 45.769531 C 92.820312 45.886719 92.558594 45.945312 92.265625 45.945312 C 91.96875 45.945312 91.699219 45.886719 91.457031 45.769531 C 91.210938 45.648438 91.015625 45.464844 90.871094 45.214844 C 90.726562 44.960938 90.652344 44.636719 90.652344 44.230469 L 90.652344 42.1875 C 90.652344 41.957031 90.609375 41.773438 90.527344 41.632812 C 90.445312 41.496094 90.339844 41.394531 90.207031 41.335938 C 90.078125 41.269531 89.933594 41.238281 89.785156 41.238281 C 89.640625 41.238281 89.5 41.269531 89.367188 41.335938 C 89.238281 41.394531 89.128906 41.496094 89.042969 41.632812 C 88.957031 41.773438 88.914062 41.957031 88.914062 42.1875 L 88.914062 44.230469 C 88.914062 44.636719 88.839844 44.960938 88.695312 45.214844 C 88.550781 45.464844 88.359375 45.648438 88.121094 45.769531 C 87.882812 45.886719 87.617188 45.945312 87.320312 45.945312 Z M 87.320312 45.945312 "/>
<path style=" stroke:none;fill-rule:nonzero;fill:rgb(0%,0%,0%);fill-opacity:1;" d="M 80.851562 45.816406 C 80.402344 45.816406 80.050781 45.6875 79.792969 45.429688 C 79.542969 45.171875 79.417969 44.824219 79.417969 44.378906 L 79.417969 39.492188 L 80.109375 39.492188 L 80.109375 44.300781 C 80.109375 44.59375 80.183594 44.816406 80.328125 44.976562 C 80.476562 45.132812 80.699219 45.214844 80.988281 45.214844 L 81.957031 45.214844 L 81.957031 45.816406 Z M 78.535156 41.367188 L 78.535156 40.761719 L 81.980469 40.761719 L 81.980469 41.367188 Z M 78.535156 41.367188 "/>
<path style=" stroke:none;fill-rule:nonzero;fill:rgb(0%,0%,0%);fill-opacity:1;" d="M 73.003906 45.820312 L 73.003906 42.875 C 73.003906 42.410156 73.109375 42.015625 73.3125 41.683594 C 73.523438 41.347656 73.804688 41.089844 74.152344 40.910156 C 74.503906 40.726562 74.886719 40.632812 75.308594 40.632812 C 75.738281 40.632812 76.125 40.726562 76.46875 40.910156 C 76.816406 41.089844 77.09375 41.347656 77.296875 41.683594 C 77.507812 42.015625 77.617188 42.410156 77.617188 42.875 L 77.617188 45.820312 L 76.921875 45.820312 L 76.921875 42.902344 C 76.921875 42.554688 76.847656 42.253906 76.695312 42.011719 C 76.542969 41.757812 76.34375 41.566406 76.089844 41.433594 C 75.847656 41.304688 75.585938 41.238281 75.300781 41.238281 C 75.023438 41.238281 74.761719 41.304688 74.519531 41.433594 C 74.273438 41.5625 74.078125 41.75 73.925781 42 C 73.773438 42.246094 73.699219 42.546875 73.699219 42.902344 L 73.699219 45.820312 Z M 73.003906 45.820312 "/>
<path style=" stroke:none;fill-rule:nonzero;fill:rgb(0%,0%,0%);fill-opacity:1;" d="M 69.898438 45.816406 C 69.355469 45.816406 68.871094 45.71875 68.441406 45.519531 C 68.019531 45.316406 67.683594 45.023438 67.433594 44.648438 C 67.191406 44.269531 67.066406 43.820312 67.066406 43.289062 C 67.066406 42.800781 67.167969 42.359375 67.363281 41.960938 C 67.5625 41.558594 67.839844 41.238281 68.195312 41 C 68.558594 40.761719 68.980469 40.640625 69.460938 40.640625 C 69.957031 40.640625 70.375 40.75 70.71875 40.96875 C 71.0625 41.1875 71.320312 41.480469 71.5 41.851562 C 71.675781 42.222656 71.765625 42.636719 71.765625 43.101562 C 71.765625 43.167969 71.761719 43.238281 71.757812 43.320312 C 71.75 43.398438 71.738281 43.46875 71.726562 43.527344 L 67.800781 43.527344 C 67.820312 43.898438 67.925781 44.207031 68.117188 44.460938 C 68.308594 44.710938 68.554688 44.898438 68.859375 45.023438 C 69.167969 45.152344 69.5 45.214844 69.859375 45.214844 L 71.132812 45.214844 L 71.132812 45.816406 Z M 67.800781 43.03125 L 71.0625 43.03125 C 71.0625 42.898438 71.050781 42.753906 71.023438 42.59375 C 71 42.429688 70.949219 42.269531 70.875 42.109375 C 70.808594 41.949219 70.714844 41.804688 70.589844 41.671875 C 70.46875 41.539062 70.316406 41.433594 70.125 41.355469 C 69.941406 41.269531 69.710938 41.226562 69.441406 41.226562 C 69.191406 41.226562 68.964844 41.28125 68.757812 41.386719 C 68.554688 41.492188 68.382812 41.632812 68.246094 41.8125 C 68.105469 41.984375 67.996094 42.175781 67.917969 42.386719 C 67.847656 42.597656 67.804688 42.8125 67.800781 43.03125 Z M 67.800781 43.03125 "/>
<path style=" stroke:none;fill-rule:nonzero;fill:rgb(0%,0%,0%);fill-opacity:1;" d="M 65.121094 45.820312 L 65.121094 38.578125 L 65.816406 38.578125 L 65.816406 45.820312 Z M 65.121094 45.820312 "/>
<path style=" stroke:none;fill-rule:nonzero;fill:rgb(0%,0%,0%);fill-opacity:1;" d="M 60.855469 45.945312 C 60.347656 45.945312 59.910156 45.828125 59.550781 45.589844 C 59.1875 45.351562 58.910156 45.035156 58.71875 44.636719 C 58.527344 44.234375 58.429688 43.785156 58.429688 43.289062 C 58.429688 42.789062 58.535156 42.335938 58.746094 41.941406 C 58.960938 41.539062 59.257812 41.21875 59.648438 40.988281 C 60.042969 40.757812 60.511719 40.640625 61.054688 40.640625 C 61.574219 40.640625 62.023438 40.757812 62.398438 40.988281 C 62.78125 41.21875 63.074219 41.53125 63.277344 41.921875 C 63.488281 42.3125 63.59375 42.75 63.59375 43.238281 L 63.59375 45.816406 L 62.914062 45.816406 L 62.914062 44.6875 L 62.882812 44.6875 C 62.789062 44.886719 62.652344 45.085938 62.46875 45.28125 C 62.28125 45.472656 62.054688 45.632812 61.785156 45.757812 C 61.519531 45.882812 61.210938 45.945312 60.855469 45.945312 Z M 61.003906 45.351562 C 61.371094 45.351562 61.699219 45.261719 61.984375 45.085938 C 62.265625 44.898438 62.488281 44.652344 62.644531 44.339844 C 62.808594 44.023438 62.890625 43.667969 62.890625 43.269531 C 62.890625 42.878906 62.816406 42.53125 62.664062 42.230469 C 62.511719 41.925781 62.300781 41.683594 62.023438 41.503906 C 61.746094 41.324219 61.414062 41.238281 61.03125 41.238281 C 60.636719 41.238281 60.296875 41.328125 60.015625 41.515625 C 59.730469 41.691406 59.511719 41.941406 59.359375 42.257812 C 59.210938 42.570312 59.132812 42.921875 59.132812 43.320312 C 59.132812 43.691406 59.207031 44.03125 59.351562 44.339844 C 59.496094 44.652344 59.707031 44.898438 59.984375 45.085938 C 60.269531 45.261719 60.609375 45.351562 61.003906 45.351562 Z M 61.003906 45.351562 "/>
<path style=" stroke:none;fill-rule:nonzero;fill:rgb(0%,0%,0%);fill-opacity:1;" d="M 56.574219 45.816406 C 56.125 45.816406 55.773438 45.6875 55.515625 45.429688 C 55.265625 45.171875 55.140625 44.824219 55.140625 44.378906 L 55.140625 39.492188 L 55.832031 39.492188 L 55.832031 44.300781 C 55.832031 44.59375 55.90625 44.816406 56.050781 44.976562 C 56.203125 45.132812 56.421875 45.214844 56.714844 45.214844 L 57.683594 45.214844 L 57.683594 45.816406 Z M 54.261719 41.367188 L 54.261719 40.761719 L 57.703125 40.761719 L 57.703125 41.367188 Z M 54.261719 41.367188 "/>
<path style=" stroke:none;fill-rule:nonzero;fill:rgb(0%,0%,0%);fill-opacity:1;" d="M 46.652344 47.832031 L 46.652344 47.226562 L 49.054688 47.226562 C 49.378906 47.226562 49.625 47.132812 49.796875 46.949219 C 49.96875 46.761719 50.054688 46.511719 50.054688 46.195312 L 50.054688 44.746094 L 50.035156 44.746094 C 49.914062 44.9375 49.765625 45.125 49.578125 45.300781 C 49.394531 45.480469 49.171875 45.625 48.917969 45.738281 C 48.664062 45.851562 48.375 45.90625 48.046875 45.90625 C 47.558594 45.90625 47.128906 45.796875 46.757812 45.570312 C 46.398438 45.339844 46.113281 45.023438 45.910156 44.628906 C 45.710938 44.230469 45.613281 43.777344 45.613281 43.269531 C 45.613281 42.773438 45.714844 42.332031 45.917969 41.941406 C 46.125 41.542969 46.417969 41.230469 46.800781 41 C 47.183594 40.769531 47.640625 40.652344 48.175781 40.652344 C 48.683594 40.652344 49.128906 40.765625 49.511719 40.988281 C 49.898438 41.214844 50.203125 41.523438 50.417969 41.921875 C 50.636719 42.3125 50.746094 42.765625 50.746094 43.28125 L 50.746094 46.273438 C 50.746094 46.75 50.609375 47.128906 50.332031 47.40625 C 50.054688 47.6875 49.675781 47.832031 49.191406 47.832031 Z M 48.15625 45.300781 C 48.523438 45.300781 48.851562 45.214844 49.132812 45.035156 C 49.417969 44.855469 49.636719 44.617188 49.796875 44.320312 C 49.960938 44.015625 50.042969 43.667969 50.042969 43.28125 C 50.042969 42.890625 49.964844 42.542969 49.808594 42.238281 C 49.65625 41.933594 49.4375 41.691406 49.152344 41.515625 C 48.871094 41.335938 48.539062 41.246094 48.164062 41.246094 C 47.78125 41.246094 47.449219 41.339844 47.164062 41.523438 C 46.886719 41.703125 46.675781 41.949219 46.53125 42.257812 C 46.386719 42.5625 46.316406 42.914062 46.316406 43.308594 C 46.316406 43.679688 46.386719 44.015625 46.53125 44.320312 C 46.675781 44.617188 46.886719 44.855469 47.164062 45.035156 C 47.441406 45.214844 47.773438 45.300781 48.15625 45.300781 Z M 48.15625 45.300781 "/>
<path style=" stroke:none;fill-rule:nonzero;fill:rgb(0%,0%,0%);fill-opacity:1;" d="M 39.746094 45.820312 L 39.746094 42.875 C 39.746094 42.410156 39.847656 42.015625 40.050781 41.683594 C 40.261719 41.347656 40.542969 41.089844 40.894531 40.910156 C 41.242188 40.726562 41.628906 40.632812 42.050781 40.632812 C 42.480469 40.632812 42.863281 40.726562 43.207031 40.910156 C 43.558594 41.089844 43.832031 41.347656 44.039062 41.683594 C 44.25 42.015625 44.355469 42.410156 44.355469 42.875 L 44.355469 45.820312 L 43.664062 45.820312 L 43.664062 42.902344 C 43.664062 42.554688 43.585938 42.253906 43.433594 42.011719 C 43.285156 41.757812 43.082031 41.566406 42.832031 41.433594 C 42.585938 41.304688 42.324219 41.238281 42.039062 41.238281 C 41.761719 41.238281 41.503906 41.304688 41.257812 41.433594 C 41.015625 41.5625 40.816406 41.75 40.664062 42 C 40.511719 42.246094 40.4375 42.546875 40.4375 42.902344 L 40.4375 45.820312 Z M 39.746094 45.820312 "/>
<path style=" stroke:none;fill-rule:nonzero;fill:rgb(0%,0%,0%);fill-opacity:1;" d="M 37.53125 45.816406 L 37.53125 40.761719 L 38.226562 40.761719 L 38.226562 45.816406 Z M 37.878906 39.847656 C 37.746094 39.847656 37.632812 39.796875 37.53125 39.699219 C 37.433594 39.601562 37.382812 39.484375 37.382812 39.351562 C 37.382812 39.214844 37.433594 39.097656 37.53125 39.003906 C 37.632812 38.90625 37.746094 38.855469 37.878906 38.855469 C 38.019531 38.855469 38.132812 38.90625 38.226562 39.003906 C 38.324219 39.097656 38.375 39.214844 38.375 39.351562 C 38.375 39.484375 38.324219 39.601562 38.226562 39.699219 C 38.132812 39.796875 38.019531 39.847656 37.878906 39.847656 Z M 37.878906 39.847656 "/>
<path style=" stroke:none;fill-rule:nonzero;fill:rgb(0%,0%,0%);fill-opacity:1;" d="M 35.273438 45.816406 C 34.824219 45.816406 34.472656 45.6875 34.214844 45.429688 C 33.964844 45.171875 33.839844 44.824219 33.839844 44.378906 L 33.839844 39.492188 L 34.53125 39.492188 L 34.53125 44.300781 C 34.53125 44.59375 34.605469 44.816406 34.75 44.976562 C 34.902344 45.132812 35.121094 45.214844 35.414062 45.214844 L 36.382812 45.214844 L 36.382812 45.816406 Z M 32.960938 41.367188 L 32.960938 40.761719 L 36.402344 40.761719 L 36.402344 41.367188 Z M 32.960938 41.367188 "/>
<path style=" stroke:none;fill-rule:nonzero;fill:rgb(0%,0%,0%);fill-opacity:1;" d="M 31.902344 45.820312 C 31.378906 45.820312 30.914062 45.707031 30.503906 45.480469 C 30.097656 45.257812 29.773438 44.957031 29.535156 44.578125 C 29.300781 44.195312 29.179688 43.765625 29.179688 43.289062 C 29.179688 42.8125 29.300781 42.386719 29.535156 42.011719 C 29.773438 41.628906 30.097656 41.324219 30.503906 41.097656 C 30.914062 40.875 31.378906 40.761719 31.902344 40.761719 L 32.472656 40.761719 L 32.472656 41.367188 L 31.851562 41.367188 C 31.488281 41.367188 31.160156 41.453125 30.863281 41.625 C 30.566406 41.789062 30.328125 42.015625 30.148438 42.308594 C 29.972656 42.597656 29.882812 42.925781 29.882812 43.289062 C 29.882812 43.652344 29.972656 43.980469 30.148438 44.269531 C 30.328125 44.5625 30.566406 44.792969 30.863281 44.964844 C 31.160156 45.128906 31.488281 45.214844 31.851562 45.214844 L 32.472656 45.214844 L 32.472656 45.820312 Z M 31.902344 45.820312 "/>
<path style=" stroke:none;fill-rule:nonzero;fill:rgb(0%,0%,0%);fill-opacity:1;" d="M 26.339844 45.816406 C 25.796875 45.816406 25.3125 45.71875 24.882812 45.519531 C 24.460938 45.316406 24.125 45.023438 23.875 44.648438 C 23.632812 44.269531 23.507812 43.820312 23.507812 43.289062 C 23.507812 42.800781 23.609375 42.359375 23.804688 41.960938 C 24.003906 41.558594 24.28125 41.238281 24.636719 41 C 25 40.761719 25.421875 40.640625 25.902344 40.640625 C 26.398438 40.640625 26.816406 40.75 27.160156 40.96875 C 27.503906 41.1875 27.761719 41.480469 27.941406 41.851562 C 28.121094 42.222656 28.207031 42.636719 28.207031 43.101562 C 28.207031 43.167969 28.207031 43.238281 28.199219 43.320312 C 28.191406 43.398438 28.183594 43.46875 28.167969 43.527344 L 24.242188 43.527344 C 24.261719 43.898438 24.367188 44.207031 24.558594 44.460938 C 24.75 44.710938 24.996094 44.898438 25.300781 45.023438 C 25.609375 45.152344 25.941406 45.214844 26.300781 45.214844 L 27.574219 45.214844 L 27.574219 45.816406 Z M 24.242188 43.03125 L 27.507812 43.03125 C 27.507812 42.898438 27.492188 42.753906 27.464844 42.59375 C 27.441406 42.429688 27.390625 42.269531 27.316406 42.109375 C 27.253906 41.949219 27.15625 41.804688 27.03125 41.671875 C 26.914062 41.539062 26.757812 41.433594 26.566406 41.355469 C 26.382812 41.269531 26.152344 41.226562 25.882812 41.226562 C 25.632812 41.226562 25.40625 41.28125 25.203125 41.386719 C 24.996094 41.492188 24.824219 41.632812 24.6875 41.8125 C 24.546875 41.984375 24.441406 42.175781 24.359375 42.386719 C 24.289062 42.597656 24.25 42.8125 24.242188 43.03125 Z M 24.242188 43.03125 "/>
<path style=" stroke:none;fill-rule:nonzero;fill:rgb(0%,0%,0%);fill-opacity:1;" d="M 17.640625 45.820312 L 17.640625 42.875 C 17.640625 42.410156 17.746094 42.015625 17.949219 41.683594 C 18.160156 41.347656 18.441406 41.089844 18.789062 40.910156 C 19.140625 40.726562 19.523438 40.632812 19.949219 40.632812 C 20.375 40.632812 20.761719 40.726562 21.105469 40.910156 C 21.453125 41.089844 21.730469 41.347656 21.9375 41.683594 C 22.148438 42.015625 22.253906 42.410156 22.253906 42.875 L 22.253906 45.820312 L 21.558594 45.820312 L 21.558594 42.902344 C 21.558594 42.554688 21.484375 42.253906 21.332031 42.011719 C 21.179688 41.757812 20.980469 41.566406 20.730469 41.433594 C 20.484375 41.304688 20.222656 41.238281 19.9375 41.238281 C 19.660156 41.238281 19.398438 41.304688 19.15625 41.433594 C 18.910156 41.5625 18.714844 41.75 18.5625 42 C 18.410156 42.246094 18.335938 42.546875 18.335938 42.902344 L 18.335938 45.820312 Z M 17.640625 45.820312 "/>
<path style=" stroke:none;fill-rule:nonzero;fill:rgb(0%,0%,0%);fill-opacity:1;" d="M 11.507812 45.820312 L 11.507812 42.875 C 11.507812 42.410156 11.609375 42.015625 11.816406 41.683594 C 12.027344 41.347656 12.304688 41.089844 12.65625 40.910156 C 13.003906 40.726562 13.390625 40.632812 13.8125 40.632812 C 14.242188 40.632812 14.628906 40.726562 14.96875 40.910156 C 15.320312 41.089844 15.597656 41.347656 15.800781 41.683594 C 16.011719 42.015625 16.117188 42.410156 16.117188 42.875 L 16.117188 45.820312 L 15.425781 45.820312 L 15.425781 42.902344 C 15.425781 42.554688 15.347656 42.253906 15.199219 42.011719 C 15.046875 41.757812 14.84375 41.566406 14.59375 41.433594 C 14.351562 41.304688 14.085938 41.238281 13.804688 41.238281 C 13.527344 41.238281 13.265625 41.304688 13.023438 41.433594 C 12.777344 41.5625 12.578125 41.75 12.429688 42 C 12.277344 42.246094 12.199219 42.546875 12.199219 42.902344 L 12.199219 45.820312 Z M 11.507812 45.820312 "/>
<path style=" stroke:none;fill-rule:nonzero;fill:rgb(0%,0%,0%);fill-opacity:1;" d="M 7.632812 45.945312 C 7.125 45.945312 6.671875 45.832031 6.277344 45.601562 C 5.878906 45.363281 5.570312 45.042969 5.347656 44.636719 C 5.121094 44.234375 5.011719 43.785156 5.011719 43.289062 C 5.011719 42.792969 5.121094 42.34375 5.347656 41.941406 C 5.570312 41.539062 5.878906 41.21875 6.277344 40.988281 C 6.671875 40.75 7.125 40.632812 7.632812 40.632812 C 8.140625 40.632812 8.585938 40.75 8.976562 40.988281 C 9.371094 41.21875 9.683594 41.539062 9.90625 41.941406 C 10.136719 42.335938 10.253906 42.789062 10.253906 43.289062 C 10.253906 43.785156 10.136719 44.234375 9.90625 44.636719 C 9.683594 45.042969 9.371094 45.363281 8.976562 45.601562 C 8.585938 45.832031 8.140625 45.945312 7.632812 45.945312 Z M 7.632812 45.34375 C 8.007812 45.34375 8.339844 45.253906 8.628906 45.074219 C 8.921875 44.890625 9.144531 44.640625 9.304688 44.332031 C 9.46875 44.019531 9.550781 43.671875 9.550781 43.289062 C 9.550781 42.90625 9.46875 42.558594 9.304688 42.25 C 9.144531 41.9375 8.921875 41.691406 8.628906 41.515625 C 8.339844 41.328125 8.007812 41.238281 7.632812 41.238281 C 7.25 41.238281 6.914062 41.328125 6.621094 41.515625 C 6.339844 41.691406 6.113281 41.9375 5.949219 42.25 C 5.792969 42.558594 5.710938 42.90625 5.710938 43.289062 C 5.710938 43.671875 5.792969 44.019531 5.949219 44.332031 C 6.113281 44.640625 6.339844 44.890625 6.621094 45.074219 C 6.914062 45.253906 7.25 45.34375 7.632812 45.34375 Z M 7.632812 45.34375 "/>
<path style=" stroke:none;fill-rule:nonzero;fill:rgb(0%,0%,0%);fill-opacity:1;" d="M 3.617188 45.820312 C 3.09375 45.820312 2.628906 45.707031 2.21875 45.480469 C 1.8125 45.257812 1.488281 44.957031 1.25 44.578125 C 1.015625 44.195312 0.894531 43.765625 0.894531 43.289062 C 0.894531 42.8125 1.015625 42.386719 1.25 42.011719 C 1.488281 41.628906 1.8125 41.324219 2.21875 41.097656 C 2.628906 40.875 3.09375 40.761719 3.617188 40.761719 L 4.1875 40.761719 L 4.1875 41.367188 L 3.566406 41.367188 C 3.203125 41.367188 2.875 41.453125 2.578125 41.625 C 2.28125 41.789062 2.042969 42.015625 1.863281 42.308594 C 1.6875 42.597656 1.597656 42.925781 1.597656 43.289062 C 1.597656 43.652344 1.6875 43.980469 1.863281 44.269531 C 2.042969 44.5625 2.28125 44.792969 2.578125 44.964844 C 2.875 45.128906 3.203125 45.214844 3.566406 45.214844 L 4.1875 45.214844 L 4.1875 45.820312 Z M 3.617188 45.820312 "/>
</g>
</svg>
