<svg width="400" height="107" viewBox="0 0 400 107" fill="none" xmlns="http://www.w3.org/2000/svg">
<path d="M356.929 74.2C352.396 74.2 348.396 73.0333 344.929 70.7C341.462 68.3667 338.762 65.2333 336.829 61.3C334.896 57.3 333.929 52.8 333.929 47.8C333.929 42.6 335.062 37.9667 337.329 33.9C339.596 29.7667 342.796 26.5 346.929 24.1C351.129 21.7 356.062 20.5 361.729 20.5C367.462 20.5 372.329 21.7 376.329 24.1C380.396 26.4333 383.496 29.6667 385.629 33.8C387.829 37.8667 388.929 42.4333 388.929 47.5V63C388.929 68.5229 384.452 73 378.929 73H373.729V64.8H373.329C372.396 66.6 371.196 68.2333 369.729 69.7C368.262 71.1 366.462 72.2 364.329 73C362.262 73.8 359.796 74.2 356.929 74.2ZM361.529 60.8C363.862 60.8 365.896 60.2333 367.629 59.1C369.429 57.9 370.796 56.2667 371.729 54.2C372.662 52.1333 373.129 49.8333 373.129 47.3C373.129 44.8333 372.662 42.6 371.729 40.6C370.796 38.6 369.429 37.0333 367.629 35.9C365.896 34.7 363.862 34.1 361.529 34.1C359.129 34.1 357.029 34.7 355.229 35.9C353.429 37.0333 352.062 38.6 351.129 40.6C350.196 42.6 349.729 44.8333 349.729 47.3C349.729 49.8333 350.196 52.1333 351.129 54.2C352.062 56.2667 353.429 57.9 355.229 59.1C357.029 60.2333 359.129 60.8 361.529 60.8Z" fill="#33295E"/>
<path d="M297.406 72.9998V36.7998C297.406 32.1331 298.739 28.4665 301.406 25.7998C304.072 23.1331 307.772 21.7998 312.506 21.7998H327.406V24.3998C327.406 29.9227 322.928 34.3998 317.406 34.3998H316.306C315.372 34.3998 314.572 34.7331 313.906 35.3998C313.239 35.9998 312.906 36.7998 312.906 37.7998V72.9998H297.406Z" fill="#33295E"/>
<path d="M258.901 74.2C253.634 74.2 248.901 73.0333 244.701 70.7C240.501 68.3667 237.168 65.1667 234.701 61.1C232.301 57.0333 231.101 52.4667 231.101 47.4C231.101 42.2667 232.301 37.7 234.701 33.7C237.168 29.6333 240.501 26.4333 244.701 24.1C248.901 21.7 253.634 20.5 258.901 20.5C264.168 20.5 268.867 21.7 273.001 24.1C277.201 26.4333 280.501 29.6333 282.901 33.7C285.368 37.7 286.601 42.2667 286.601 47.4C286.601 52.4667 285.368 57.0333 282.901 61.1C280.501 65.1667 277.201 68.3667 273.001 70.7C268.801 73.0333 264.101 74.2 258.901 74.2ZM258.901 60.7C261.368 60.7 263.501 60.1 265.301 58.9C267.101 57.7 268.501 56.1 269.501 54.1C270.501 52.1 271.001 49.8333 271.001 47.3C271.001 44.8333 270.501 42.6 269.501 40.6C268.501 38.6 267.101 37 265.301 35.8C263.501 34.6 261.368 34 258.901 34C256.434 34 254.267 34.6 252.401 35.8C250.601 37 249.201 38.6 248.201 40.6C247.201 42.6 246.701 44.8333 246.701 47.3C246.701 49.8333 247.201 52.1 248.201 54.1C249.201 56.1 250.601 57.7 252.401 58.9C254.267 60.1 256.434 60.7 258.901 60.7Z" fill="#33295E"/>
<path d="M169.001 73V43.5C169.001 39.2333 170.034 35.3667 172.101 31.9C174.167 28.4333 177.101 25.6667 180.901 23.6C184.767 21.5333 189.334 20.5 194.601 20.5C199.934 20.5 204.467 21.5333 208.201 23.6C212.001 25.6667 214.901 28.4333 216.901 31.9C218.901 35.3667 219.901 39.2333 219.901 43.5V63C219.901 68.5229 215.424 73 209.901 73H204.401V43.9C204.401 42.1 203.967 40.4667 203.101 39C202.234 37.4667 201.034 36.2667 199.501 35.4C198.034 34.4667 196.367 34 194.501 34C192.567 34 190.834 34.4667 189.301 35.4C187.834 36.2667 186.667 37.4667 185.801 39C184.934 40.4667 184.501 42.1 184.501 43.9V63C184.501 68.5228 180.024 73 174.501 73H169.001Z" fill="#33295E"/>
<path d="M106.845 73V0H112.345C117.867 0 122.345 4.47715 122.345 10V41.1H129.145L140.845 21.7H158.145L144.345 43.1C148.345 44.7667 151.445 47.3333 153.645 50.8C155.911 54.2 157.045 58.2 157.045 62.8V63C157.045 68.5229 152.567 73 147.045 73H141.445V62.8C141.445 60.9333 140.978 59.2667 140.045 57.8C139.178 56.2667 138.011 55.0667 136.545 54.2C135.078 53.3333 133.411 52.9 131.545 52.9H122.345V63C122.345 68.5228 117.867 73 112.345 73H106.845Z" fill="#33295E"/>
<path d="M74.6133 73C68.8133 73 63.7133 71.9333 59.3133 69.8C54.9133 67.6 51.48 64.6 49.0133 60.8C46.6133 56.9333 45.4133 52.4667 45.4133 47.4C45.4133 41.8 46.58 37 48.9133 33C51.2467 29 54.3467 25.9333 58.2133 23.8C62.1467 21.6 66.48 20.5 71.2133 20.5C76.6133 20.5 81.1133 21.6333 84.7133 23.9C88.38 26.1667 91.1467 29.2667 93.0133 33.2C94.88 37.0667 95.8133 41.5 95.8133 46.5C95.8133 47.3667 95.7467 48.4 95.6133 49.6C95.5205 51.178 94.1755 52.3 92.5947 52.3H61.7133C62.1133 54.0333 62.88 55.5 64.0133 56.7C65.1467 57.9 66.58 58.8 68.3133 59.4C70.0467 59.9333 71.98 60.2 74.1133 60.2H89.8133V63C89.8133 68.5228 85.3362 73 79.8133 73H74.6133ZM61.3133 42.6H80.8133C80.68 41.5333 80.48 40.5 80.2133 39.5C79.9467 38.5 79.5133 37.6333 78.9133 36.9C78.38 36.1 77.7467 35.4333 77.0133 34.9C76.28 34.3 75.4133 33.8333 74.4133 33.5C73.48 33.1667 72.4133 33 71.2133 33C69.68 33 68.3133 33.2667 67.1133 33.8C65.9133 34.3333 64.9133 35.0667 64.1133 36C63.3133 36.8667 62.68 37.9 62.2133 39.1C61.8133 40.2333 61.5133 41.4 61.3133 42.6Z" fill="#33295E"/>
<path d="M23.5 73.0002C18.7667 73.0002 15.0667 71.6669 12.4 69.0002C9.73333 66.2669 8.4 62.6002 8.4 58.0002V22.2002H24V57.1002C24 57.9002 24.2667 58.6002 24.8 59.2002C25.4 59.7335 26.1 60.0002 26.9 60.0002H38.1V63.0002C38.1 68.523 33.6229 73.0002 28.1 73.0002H23.5ZM0 34.4002V21.7002H38.1V34.4002H0Z" fill="#33295E"/>
<path d="M9.8999 6H24.8999V12C24.8999 17.5228 20.4227 22 14.8999 22H9.8999V6Z" fill="#FF645A"/>
<path d="M392 13.333C395.682 13.333 398.667 16.3177 398.667 19.9997C398.667 23.6817 395.682 26.6663 392 26.6663C388.318 26.6663 385.333 23.6817 385.333 19.9997C385.333 16.3177 388.318 13.333 392 13.333ZM392 14.6663C390.585 14.6663 389.229 15.2282 388.229 16.2284C387.229 17.2286 386.667 18.5852 386.667 19.9997C386.667 21.4142 387.229 22.7707 388.229 23.7709C389.229 24.7711 390.585 25.333 392 25.333C393.414 25.333 394.771 24.7711 395.771 23.7709C396.771 22.7707 397.333 21.4142 397.333 19.9997C397.333 18.5852 396.771 17.2286 395.771 16.2284C394.771 15.2282 393.414 14.6663 392 14.6663ZM392.333 16.6663C392.842 16.6662 393.338 16.8326 393.743 17.1402C394.149 17.4477 394.443 17.8795 394.58 18.3696C394.718 18.8598 394.691 19.3815 394.505 19.8551C394.318 20.3288 393.982 20.7284 393.547 20.993L395.245 23.333H393.597L392.144 21.333H390.667V23.333H389.333V16.6663H392.333ZM392.333 17.9997H390.667V19.9997H392.333C392.582 19.9997 392.821 19.9072 393.005 19.7402C393.189 19.5732 393.305 19.3437 393.329 19.0963L393.333 18.9997C393.333 18.7345 393.228 18.4801 393.04 18.2926C392.853 18.105 392.599 17.9997 392.333 17.9997Z" fill="#33295E"/>
<path d="M377.992 102.137V100.788H383.297C383.754 100.788 384.137 100.693 384.447 100.501C384.756 100.309 384.992 100.059 385.154 99.7495C385.331 99.44 385.419 99.1232 385.419 98.799C385.419 98.4748 385.346 98.18 385.198 97.9148C385.051 97.6348 384.837 97.4064 384.557 97.2295C384.277 97.0527 383.924 96.9643 383.496 96.9643H381.131C380.409 96.9643 379.783 96.8464 379.252 96.6106C378.736 96.3601 378.338 96.0064 378.058 95.5495C377.793 95.0927 377.66 94.5622 377.66 93.958C377.66 93.4127 377.793 92.9043 378.058 92.4327C378.324 91.9612 378.699 91.5854 379.186 91.3054C379.672 91.0106 380.239 90.8633 380.888 90.8633H385.994V92.2117H381.043C380.468 92.2117 380.018 92.3885 379.694 92.7422C379.37 93.0812 379.208 93.4717 379.208 93.9138C379.208 94.3411 379.37 94.7243 379.694 95.0632C380.018 95.4022 380.505 95.5717 381.153 95.5717H383.364C384.159 95.5717 384.822 95.7043 385.353 95.9695C385.898 96.2348 386.304 96.6032 386.569 97.0748C386.849 97.5464 386.989 98.099 386.989 98.7327C386.989 99.3074 386.841 99.86 386.547 100.391C386.252 100.906 385.847 101.326 385.331 101.651C384.83 101.975 384.24 102.137 383.562 102.137H377.992Z" fill="black"/>
<path d="M371.289 102.136C370.08 102.136 368.997 101.915 368.039 101.473C367.096 101.016 366.345 100.368 365.785 99.5281C365.239 98.6881 364.967 97.6786 364.967 96.4997C364.967 95.4092 365.188 94.4218 365.63 93.5376C366.072 92.6387 366.691 91.924 367.487 91.3934C368.297 90.8629 369.24 90.5977 370.316 90.5977C371.421 90.5977 372.357 90.8408 373.124 91.3271C373.89 91.8134 374.472 92.4692 374.87 93.2945C375.268 94.1197 375.467 95.0481 375.467 96.0797C375.467 96.2271 375.459 96.3892 375.445 96.566C375.43 96.7429 375.408 96.8976 375.378 97.0302H366.602C366.647 97.8555 366.882 98.5481 367.31 99.1081C367.737 99.6681 368.29 100.088 368.968 100.368C369.66 100.648 370.405 100.788 371.2 100.788H374.052V102.136H371.289ZM366.602 95.925H373.897C373.897 95.6302 373.868 95.306 373.809 94.9523C373.75 94.5839 373.639 94.2229 373.477 93.8692C373.33 93.5155 373.116 93.1913 372.836 92.8966C372.571 92.6018 372.225 92.3661 371.797 92.1892C371.385 91.9976 370.876 91.9019 370.272 91.9019C369.712 91.9019 369.204 92.0197 368.747 92.2555C368.29 92.4913 367.907 92.8082 367.597 93.2061C367.288 93.5892 367.045 94.0166 366.868 94.4881C366.706 94.9597 366.617 95.4387 366.602 95.925Z" fill="black"/>
<path d="M360.62 102.136V90.8623H362.167V102.136H360.62ZM361.394 88.8287C361.099 88.8287 360.841 88.7181 360.62 88.4971C360.399 88.276 360.288 88.0181 360.288 87.7234C360.288 87.4139 360.399 87.1561 360.62 86.9497C360.841 86.7287 361.099 86.6182 361.394 86.6182C361.703 86.6182 361.961 86.7287 362.167 86.9497C362.388 87.1561 362.499 87.4139 362.499 87.7234C362.499 88.0181 362.388 88.276 362.167 88.4971C361.961 88.7181 361.703 88.8287 361.394 88.8287Z" fill="black"/>
<path d="M355.572 102.136C354.57 102.136 353.781 101.849 353.207 101.274C352.647 100.699 352.367 99.9183 352.367 98.931V88.0332H353.914V98.7541C353.914 99.4026 354.076 99.9036 354.4 100.257C354.739 100.611 355.233 100.788 355.881 100.788H358.048V102.136H355.572ZM350.399 92.2111V90.8626H358.092V92.2111H350.399Z" fill="black"/>
<path d="M346.804 102.136V90.8623H348.352V102.136H346.804ZM347.578 88.8287C347.283 88.8287 347.025 88.7181 346.804 88.4971C346.583 88.276 346.473 88.0181 346.473 87.7234C346.473 87.4139 346.583 87.1561 346.804 86.9497C347.025 86.7287 347.283 86.6182 347.578 86.6182C347.887 86.6182 348.145 86.7287 348.352 86.9497C348.573 87.1561 348.683 87.4139 348.683 87.7234C348.683 88.0181 348.573 88.276 348.352 88.4971C348.145 88.7181 347.887 88.8287 347.578 88.8287Z" fill="black"/>
<path d="M333.096 102.137V95.5719C333.096 94.5403 333.325 93.6561 333.782 92.9193C334.253 92.1677 334.88 91.593 335.661 91.1951C336.442 90.7825 337.304 90.5762 338.247 90.5762C339.205 90.5762 340.067 90.7825 340.833 91.1951C341.614 91.593 342.233 92.1677 342.69 92.9193C343.162 93.6561 343.397 94.5403 343.397 95.5719V102.137H341.85V95.6382C341.85 94.8572 341.681 94.194 341.342 93.6488C341.003 93.0888 340.553 92.6614 339.993 92.3667C339.448 92.0719 338.859 91.9246 338.225 91.9246C337.606 91.9246 337.024 92.0719 336.479 92.3667C335.933 92.6467 335.491 93.0667 335.152 93.6267C334.813 94.1719 334.644 94.8424 334.644 95.6382V102.137H333.096Z" fill="black"/>
<path d="M324.517 102.424C323.574 102.424 322.712 102.225 321.931 101.827C321.15 101.415 320.524 100.833 320.052 100.081C319.595 99.3295 319.367 98.4453 319.367 97.4285V90.8633H320.914V97.3622C320.914 98.1432 321.084 98.8137 321.423 99.3737C321.776 99.9337 322.226 100.361 322.771 100.656C323.316 100.936 323.899 101.076 324.517 101.076C325.151 101.076 325.741 100.928 326.286 100.634C326.846 100.339 327.295 99.919 327.634 99.3737C327.973 98.8137 328.143 98.1432 328.143 97.3622V90.8633H329.69V97.4285C329.69 98.4453 329.462 99.3295 329.005 100.081C328.548 100.833 327.929 101.415 327.148 101.827C326.367 102.225 325.49 102.424 324.517 102.424Z" fill="black"/>
<path d="M314.319 102.136C313.317 102.136 312.528 101.849 311.953 101.274C311.393 100.699 311.113 99.9183 311.113 98.931V88.0332H312.661V98.7541C312.661 99.4026 312.823 99.9036 313.147 100.257C313.486 100.611 313.98 100.788 314.628 100.788H316.795V102.136H314.319ZM309.146 92.2111V90.8626H316.839V92.2111H309.146Z" fill="black"/>
<path d="M302.917 102.137V94.0685C302.917 93.0664 303.197 92.2854 303.757 91.7254C304.331 91.1506 305.12 90.8633 306.122 90.8633H308.067V92.2117H306.431C305.783 92.2117 305.289 92.3885 304.95 92.7422C304.626 93.0959 304.464 93.5969 304.464 94.2454V102.137H302.917Z" fill="black"/>
<path d="M294.298 102.424C293.163 102.424 292.154 102.167 291.27 101.651C290.385 101.12 289.693 100.406 289.192 99.5066C288.691 98.6077 288.44 97.6056 288.44 96.5003C288.44 95.3951 288.691 94.393 289.192 93.494C289.693 92.5951 290.385 91.8877 291.27 91.372C292.154 90.8414 293.163 90.5762 294.298 90.5762C295.433 90.5762 296.435 90.8414 297.304 91.372C298.188 91.8877 298.881 92.5951 299.382 93.494C299.898 94.3782 300.156 95.3803 300.156 96.5003C300.156 97.6056 299.898 98.6077 299.382 99.5066C298.881 100.406 298.188 101.12 297.304 101.651C296.435 102.167 295.433 102.424 294.298 102.424ZM294.298 101.076C295.138 101.076 295.882 100.877 296.531 100.479C297.179 100.067 297.68 99.514 298.034 98.8214C298.402 98.1287 298.586 97.355 298.586 96.5003C298.586 95.6456 298.402 94.8719 298.034 94.1793C297.68 93.4867 297.179 92.9414 296.531 92.5435C295.882 92.1309 295.138 91.9246 294.298 91.9246C293.443 91.9246 292.692 92.1309 292.043 92.5435C291.41 92.9414 290.908 93.4867 290.54 94.1793C290.186 94.8719 290.01 95.6456 290.01 96.5003C290.01 97.355 290.186 98.1287 290.54 98.8214C290.908 99.514 291.41 100.067 292.043 100.479C292.692 100.877 293.443 101.076 294.298 101.076Z" fill="black"/>
<path d="M280.513 90.5762C281.309 90.5762 282.053 90.7162 282.746 90.9962C283.438 91.2614 284.043 91.652 284.558 92.1677C285.089 92.6835 285.501 93.3172 285.796 94.0688C286.091 94.8056 286.238 95.6456 286.238 96.5887C286.238 97.7824 285.988 98.814 285.487 99.6835C284.986 100.553 284.315 101.223 283.475 101.695C282.65 102.167 281.729 102.402 280.712 102.402C280.093 102.402 279.504 102.292 278.944 102.071C278.384 101.85 277.883 101.548 277.44 101.164C276.998 100.767 276.652 100.317 276.401 99.8161H276.357V107H274.81V96.4782C274.81 95.2109 275.068 94.1425 275.584 93.273C276.099 92.3888 276.792 91.7183 277.661 91.2614C278.531 90.8046 279.481 90.5762 280.513 90.5762ZM280.491 91.9246C279.754 91.9246 279.069 92.1014 278.435 92.4551C277.816 92.8088 277.315 93.3246 276.932 94.0025C276.564 94.6803 276.379 95.5056 276.379 96.4782C276.379 97.4361 276.571 98.2614 276.954 98.954C277.337 99.6319 277.846 100.155 278.479 100.523C279.113 100.877 279.798 101.054 280.535 101.054C281.272 101.054 281.95 100.87 282.569 100.501C283.203 100.133 283.711 99.6098 284.094 98.9319C284.477 98.2393 284.669 97.4287 284.669 96.5003C284.669 95.5424 284.477 94.7246 284.094 94.0467C283.711 93.354 283.203 92.8309 282.569 92.4772C281.935 92.1088 281.242 91.9246 280.491 91.9246Z" fill="black"/>
<path d="M266.33 90.5762C267.126 90.5762 267.87 90.7162 268.563 90.9962C269.255 91.2614 269.86 91.652 270.376 92.1677C270.906 92.6835 271.319 93.3172 271.613 94.0688C271.908 94.8056 272.056 95.6456 272.056 96.5887C272.056 97.7824 271.805 98.814 271.304 99.6835C270.803 100.553 270.132 101.223 269.292 101.695C268.467 102.167 267.546 102.402 266.529 102.402C265.91 102.402 265.321 102.292 264.761 102.071C264.201 101.85 263.7 101.548 263.258 101.164C262.816 100.767 262.469 100.317 262.219 99.8161H262.174V107H260.627V96.4782C260.627 95.2109 260.885 94.1425 261.401 93.273C261.917 92.3888 262.609 91.7183 263.479 91.2614C264.348 90.8046 265.299 90.5762 266.33 90.5762ZM266.308 91.9246C265.571 91.9246 264.886 92.1014 264.252 92.4551C263.633 92.8088 263.132 93.3246 262.749 94.0025C262.381 94.6803 262.197 95.5056 262.197 96.4782C262.197 97.4361 262.388 98.2614 262.771 98.954C263.154 99.6319 263.663 100.155 264.297 100.523C264.93 100.877 265.615 101.054 266.352 101.054C267.089 101.054 267.767 100.87 268.386 100.501C269.02 100.133 269.528 99.6098 269.911 98.9319C270.294 98.2393 270.486 97.4287 270.486 96.5003C270.486 95.5424 270.294 94.7246 269.911 94.0467C269.528 93.354 269.02 92.8309 268.386 92.4772C267.752 92.1088 267.06 91.9246 266.308 91.9246Z" fill="black"/>
<path d="M252.009 102.424C250.874 102.424 249.865 102.167 248.98 101.651C248.096 101.12 247.404 100.406 246.902 99.5066C246.401 98.6077 246.151 97.6056 246.151 96.5003C246.151 95.3951 246.401 94.393 246.902 93.494C247.404 92.5951 248.096 91.8877 248.98 91.372C249.865 90.8414 250.874 90.5762 252.009 90.5762C253.144 90.5762 254.146 90.8414 255.015 91.372C255.899 91.8877 256.592 92.5951 257.093 93.494C257.609 94.3782 257.867 95.3803 257.867 96.5003C257.867 97.6056 257.609 98.6077 257.093 99.5066C256.592 100.406 255.899 101.12 255.015 101.651C254.146 102.167 253.144 102.424 252.009 102.424ZM252.009 101.076C252.849 101.076 253.593 100.877 254.241 100.479C254.89 100.067 255.391 99.514 255.745 98.8214C256.113 98.1287 256.297 97.355 256.297 96.5003C256.297 95.6456 256.113 94.8719 255.745 94.1793C255.391 93.4867 254.89 92.9414 254.241 92.5435C253.593 92.1309 252.849 91.9246 252.009 91.9246C251.154 91.9246 250.402 92.1309 249.754 92.5435C249.12 92.9414 248.619 93.4867 248.251 94.1793C247.897 94.8719 247.72 95.6456 247.72 96.5003C247.72 97.355 247.897 98.1287 248.251 98.8214C248.619 99.514 249.12 100.067 249.754 100.479C250.402 100.877 251.154 101.076 252.009 101.076Z" fill="black"/>
<path d="M226.931 102.137V86H228.478V92.6536C228.92 91.961 229.495 91.4452 230.202 91.1063C230.924 90.7526 231.683 90.5757 232.479 90.5757C233.422 90.5757 234.27 90.7821 235.021 91.1947C235.788 91.5926 236.392 92.1673 236.834 92.9189C237.276 93.6557 237.497 94.5399 237.497 95.5715V102.137H235.95V95.6378C235.95 94.8568 235.765 94.1936 235.397 93.6483C235.043 93.0883 234.579 92.661 234.004 92.3663C233.444 92.0715 232.84 91.9242 232.192 91.9242C231.573 91.9242 230.976 92.0715 230.401 92.3663C229.826 92.6462 229.362 93.0589 229.009 93.6041C228.655 94.1494 228.478 94.8125 228.478 95.5936V102.137H226.931Z" fill="black"/>
<path d="M221.883 102.136C220.88 102.136 220.092 101.849 219.517 101.274C218.957 100.699 218.677 99.9183 218.677 98.931V88.0332H220.225V98.7541C220.225 99.4026 220.387 99.9036 220.711 100.257C221.05 100.611 221.544 100.788 222.192 100.788H224.358V102.136H221.883ZM216.71 92.2111V90.8626H224.403V92.2111H216.71Z" fill="black"/>
<path d="M213.115 102.136V90.8623H214.662V102.136H213.115ZM213.889 88.8287C213.594 88.8287 213.336 88.7181 213.115 88.4971C212.894 88.276 212.783 88.0181 212.783 87.7234C212.783 87.4139 212.894 87.1561 213.115 86.9497C213.336 86.7287 213.594 86.6182 213.889 86.6182C214.198 86.6182 214.456 86.7287 214.662 86.9497C214.883 87.1561 214.994 87.4139 214.994 87.7234C214.994 88.0181 214.883 88.276 214.662 88.4971C214.456 88.7181 214.198 88.8287 213.889 88.8287Z" fill="black"/>
<path d="M195.13 102.424C194.481 102.424 193.884 102.292 193.339 102.027C192.794 101.761 192.359 101.349 192.035 100.789C191.725 100.229 191.571 99.4992 191.571 98.6003V90.8635H193.118V98.9098C193.118 99.4108 193.214 99.8234 193.405 100.148C193.597 100.457 193.84 100.693 194.135 100.855C194.444 101.002 194.776 101.076 195.13 101.076C195.469 101.076 195.793 101.002 196.102 100.855C196.412 100.693 196.662 100.45 196.854 100.126C197.045 99.8013 197.141 99.3961 197.141 98.9098V94.2677C197.141 93.413 197.296 92.713 197.605 92.1677C197.93 91.6225 198.357 91.2246 198.888 90.9741C199.418 90.7088 200 90.5762 200.634 90.5762C201.268 90.5762 201.85 90.7088 202.38 90.9741C202.911 91.2246 203.331 91.6225 203.64 92.1677C203.964 92.713 204.127 93.413 204.127 94.2677V98.9098C204.127 99.3961 204.222 99.8013 204.414 100.126C204.605 100.45 204.856 100.693 205.165 100.855C205.49 101.002 205.829 101.076 206.182 101.076C206.521 101.076 206.838 101.002 207.133 100.855C207.442 100.693 207.693 100.45 207.884 100.126C208.076 99.8013 208.172 99.3961 208.172 98.9098V90.8635H209.719V98.6003C209.719 99.4992 209.557 100.229 209.233 100.789C208.923 101.349 208.496 101.761 207.951 102.027C207.42 102.292 206.831 102.424 206.182 102.424C205.519 102.424 204.915 102.292 204.37 102.027C203.824 101.761 203.39 101.349 203.065 100.789C202.741 100.229 202.579 99.4992 202.579 98.6003V94.0467C202.579 93.5309 202.483 93.1183 202.292 92.8088C202.115 92.4993 201.879 92.2783 201.584 92.1456C201.29 91.9983 200.973 91.9246 200.634 91.9246C200.31 91.9246 200 91.9983 199.705 92.1456C199.411 92.2783 199.168 92.4993 198.976 92.8088C198.784 93.1183 198.689 93.5309 198.689 94.0467V98.6003C198.689 99.4992 198.527 100.229 198.202 100.789C197.878 101.349 197.451 101.761 196.92 102.027C196.39 102.292 195.793 102.424 195.13 102.424Z" fill="black"/>
<path d="M180.673 102.136C179.671 102.136 178.882 101.849 178.307 101.274C177.747 100.699 177.467 99.9183 177.467 98.931V88.0332H179.015V98.7541C179.015 99.4026 179.177 99.9036 179.501 100.257C179.84 100.611 180.334 100.788 180.982 100.788H183.148V102.136H180.673ZM175.5 92.2111V90.8626H183.193V92.2111H175.5Z" fill="black"/>
<path d="M163.141 102.137V95.5719C163.141 94.5403 163.369 93.6561 163.826 92.9193C164.297 92.1677 164.924 91.593 165.705 91.1951C166.486 90.7825 167.348 90.5762 168.291 90.5762C169.249 90.5762 170.111 90.7825 170.877 91.1951C171.659 91.593 172.277 92.1677 172.734 92.9193C173.206 93.6561 173.442 94.5403 173.442 95.5719V102.137H171.894V95.6382C171.894 94.8572 171.725 94.194 171.386 93.6488C171.047 93.0888 170.597 92.6614 170.037 92.3667C169.492 92.0719 168.903 91.9246 168.269 91.9246C167.65 91.9246 167.068 92.0719 166.523 92.3667C165.977 92.6467 165.535 93.0667 165.196 93.6267C164.857 94.1719 164.688 94.8424 164.688 95.6382V102.137H163.141Z" fill="black"/>
<path d="M156.194 102.136C154.986 102.136 153.903 101.915 152.945 101.473C152.002 101.016 151.25 100.368 150.69 99.5281C150.145 98.6881 149.872 97.6786 149.872 96.4997C149.872 95.4092 150.093 94.4218 150.535 93.5376C150.977 92.6387 151.596 91.924 152.392 91.3934C153.203 90.8629 154.146 90.5977 155.222 90.5977C156.327 90.5977 157.263 90.8408 158.029 91.3271C158.795 91.8134 159.377 92.4692 159.775 93.2945C160.173 94.1197 160.372 95.0481 160.372 96.0797C160.372 96.2271 160.365 96.3892 160.35 96.566C160.335 96.7429 160.313 96.8976 160.284 97.0302H151.508C151.552 97.8555 151.788 98.5481 152.215 99.1081C152.643 99.6681 153.195 100.088 153.873 100.368C154.566 100.648 155.31 100.788 156.106 100.788H158.957V102.136H156.194ZM151.508 95.925H158.803C158.803 95.6302 158.773 95.306 158.714 94.9523C158.655 94.5839 158.545 94.2229 158.383 93.8692C158.235 93.5155 158.022 93.1913 157.742 92.8966C157.476 92.6018 157.13 92.3661 156.703 92.1892C156.29 91.9976 155.782 91.9019 155.177 91.9019C154.617 91.9019 154.109 92.0197 153.652 92.2555C153.195 92.4913 152.812 92.8082 152.503 93.2061C152.193 93.5892 151.95 94.0166 151.773 94.4881C151.611 94.9597 151.523 95.4387 151.508 95.925Z" fill="black"/>
<path d="M145.525 102.137V86H147.073V102.137H145.525Z" fill="black"/>
<path d="M135.989 102.424C134.854 102.424 133.881 102.159 133.071 101.628C132.26 101.098 131.641 100.39 131.214 99.506C130.787 98.607 130.573 97.605 130.573 96.4997C130.573 95.3797 130.809 94.3776 131.28 93.4934C131.752 92.5945 132.422 91.8871 133.292 91.3713C134.176 90.8555 135.222 90.5977 136.431 90.5977C137.595 90.5977 138.597 90.8555 139.437 91.3713C140.292 91.8871 140.948 92.5797 141.404 93.4492C141.876 94.3187 142.112 95.2987 142.112 96.3892V102.136H140.587V99.6165H140.52C140.314 100.059 140.004 100.501 139.592 100.943C139.179 101.37 138.671 101.724 138.067 102.004C137.477 102.284 136.784 102.424 135.989 102.424ZM136.32 101.098C137.146 101.098 137.875 100.899 138.509 100.501C139.142 100.088 139.636 99.5355 139.99 98.8428C140.358 98.1355 140.542 97.3397 140.542 96.4555C140.542 95.586 140.373 94.8123 140.034 94.1345C139.695 93.4566 139.216 92.9187 138.597 92.5208C137.978 92.1229 137.241 91.924 136.387 91.924C135.502 91.924 134.743 92.1303 134.11 92.5429C133.476 92.9408 132.99 93.4934 132.651 94.2008C132.312 94.8934 132.142 95.6818 132.142 96.566C132.142 97.3913 132.304 98.1502 132.629 98.8428C132.953 99.5355 133.424 100.088 134.043 100.501C134.677 100.899 135.436 101.098 136.32 101.098Z" fill="black"/>
<path d="M126.424 102.136C125.422 102.136 124.634 101.849 124.059 101.274C123.499 100.699 123.219 99.9183 123.219 98.931V88.0332H124.766V98.7541C124.766 99.4026 124.928 99.9036 125.253 100.257C125.591 100.611 126.085 100.788 126.734 100.788H128.9V102.136H126.424ZM121.251 92.2111V90.8626H128.944V92.2111H121.251Z" fill="black"/>
<path d="M104.248 106.624V105.276H109.62C110.342 105.276 110.894 105.069 111.278 104.657C111.661 104.244 111.852 103.684 111.852 102.977V99.7495H111.808C111.543 100.177 111.204 100.589 110.791 100.987C110.379 101.385 109.885 101.709 109.31 101.96C108.75 102.211 108.102 102.336 107.365 102.336C106.274 102.336 105.317 102.085 104.491 101.584C103.681 101.068 103.047 100.368 102.59 99.4842C102.148 98.6 101.927 97.5906 101.927 96.4558C101.927 95.3506 102.155 94.3632 102.612 93.4938C103.069 92.6096 103.725 91.9096 104.58 91.3938C105.434 90.878 106.459 90.6201 107.652 90.6201C108.787 90.6201 109.782 90.8706 110.637 91.3717C111.506 91.8727 112.184 92.5654 112.67 93.4496C113.157 94.319 113.4 95.3285 113.4 96.478V103.154C113.4 104.215 113.09 105.055 112.471 105.674C111.852 106.307 111.005 106.624 109.929 106.624H104.248ZM107.608 100.987C108.433 100.987 109.163 100.788 109.797 100.391C110.43 99.9927 110.924 99.4621 111.278 98.799C111.646 98.1211 111.83 97.3474 111.83 96.478C111.83 95.6085 111.653 94.8348 111.3 94.1569C110.961 93.479 110.474 92.9411 109.841 92.5433C109.207 92.1454 108.47 91.9464 107.63 91.9464C106.775 91.9464 106.031 92.1527 105.398 92.5654C104.779 92.9633 104.307 93.5085 103.983 94.2011C103.659 94.879 103.497 95.6601 103.497 96.5443C103.497 97.3695 103.659 98.1211 103.983 98.799C104.307 99.4621 104.779 99.9927 105.398 100.391C106.017 100.788 106.753 100.987 107.608 100.987Z" fill="black"/>
<path d="M88.816 102.137V95.5719C88.816 94.5403 89.0444 93.6561 89.5012 92.9193C89.9728 92.1677 90.5991 91.593 91.3802 91.1951C92.1612 90.7825 93.0234 90.5762 93.9665 90.5762C94.9244 90.5762 95.7865 90.7825 96.5528 91.1951C97.3339 91.593 97.9528 92.1677 98.4097 92.9193C98.8812 93.6561 99.117 94.5403 99.117 95.5719V102.137H97.5697V95.6382C97.5697 94.8572 97.4002 94.194 97.0612 93.6488C96.7223 93.0888 96.2728 92.6614 95.7128 92.3667C95.1676 92.0719 94.5781 91.9246 93.9444 91.9246C93.3255 91.9246 92.7433 92.0719 92.1981 92.3667C91.6528 92.6467 91.2107 93.0667 90.8718 93.6267C90.5328 94.1719 90.3634 94.8424 90.3634 95.6382V102.137H88.816Z" fill="black"/>
<path d="M83.8724 102.136V90.8623H85.4198V102.136H83.8724ZM84.6461 88.8287C84.3514 88.8287 84.0935 88.7181 83.8724 88.4971C83.6514 88.276 83.5408 88.0181 83.5408 87.7234C83.5408 87.4139 83.6514 87.1561 83.8724 86.9497C84.0935 86.7287 84.3514 86.6182 84.6461 86.6182C84.9556 86.6182 85.2135 86.7287 85.4198 86.9497C85.6408 87.1561 85.7514 87.4139 85.7514 87.7234C85.7514 88.0181 85.6408 88.276 85.4198 88.4971C85.2135 88.7181 84.9556 88.8287 84.6461 88.8287Z" fill="black"/>
<path d="M78.8244 102.136C77.8223 102.136 77.0339 101.849 76.4592 101.274C75.8992 100.699 75.6192 99.9183 75.6192 98.931V88.0332H77.1665V98.7541C77.1665 99.4026 77.3286 99.9036 77.6528 100.257C77.9918 100.611 78.4855 100.788 79.1339 100.788H81.3002V102.136H78.8244ZM73.6518 92.2111V90.8626H81.3444V92.2111H73.6518Z" fill="black"/>
<path d="M71.286 102.137C70.1218 102.137 69.0828 101.886 68.1691 101.385C67.2555 100.884 66.5333 100.214 66.0028 99.3737C65.4723 98.519 65.207 97.5611 65.207 96.5001C65.207 95.439 65.4723 94.4885 66.0028 93.6485C66.5333 92.7938 67.2555 92.1159 68.1691 91.6149C69.0828 91.1138 70.1218 90.8633 71.286 90.8633H72.5681V92.2117H71.1754C70.3649 92.2117 69.6281 92.4033 68.9649 92.7864C68.3018 93.1548 67.7712 93.6633 67.3733 94.3117C66.9755 94.9601 66.7765 95.6895 66.7765 96.5001C66.7765 97.3106 66.9755 98.0401 67.3733 98.6885C67.7712 99.3369 68.3018 99.8527 68.9649 100.236C69.6281 100.604 70.3649 100.788 71.1754 100.788H72.5681V102.137H71.286Z" fill="black"/>
<path d="M58.8578 102.136C57.6494 102.136 56.5662 101.915 55.6083 101.473C54.6652 101.016 53.9136 100.368 53.3536 99.5281C52.8083 98.6881 52.5357 97.6786 52.5357 96.4997C52.5357 95.4092 52.7568 94.4218 53.1989 93.5376C53.641 92.6387 54.2599 91.924 55.0557 91.3934C55.8662 90.8629 56.8094 90.5977 57.8852 90.5977C58.9904 90.5977 59.9262 90.8408 60.6925 91.3271C61.4589 91.8134 62.041 92.4692 62.4389 93.2945C62.8368 94.1197 63.0357 95.0481 63.0357 96.0797C63.0357 96.2271 63.0283 96.3892 63.0136 96.566C62.9989 96.7429 62.9767 96.8976 62.9473 97.0302H54.1715C54.2157 97.8555 54.4515 98.5481 54.8789 99.1081C55.3062 99.6681 55.8589 100.088 56.5368 100.368C57.2294 100.648 57.9736 100.788 58.7694 100.788H61.621V102.136H58.8578ZM54.1715 95.925H61.4662C61.4662 95.6302 61.4368 95.306 61.3778 94.9523C61.3189 94.5839 61.2083 94.2229 61.0462 93.8692C60.8989 93.5155 60.6852 93.1913 60.4052 92.8966C60.1399 92.6018 59.7936 92.3661 59.3662 92.1892C58.9536 91.9976 58.4452 91.9019 57.841 91.9019C57.281 91.9019 56.7725 92.0197 56.3157 92.2555C55.8589 92.4913 55.4757 92.8082 55.1662 93.2061C54.8568 93.5892 54.6136 94.0166 54.4368 94.4881C54.2747 94.9597 54.1862 95.4387 54.1715 95.925Z" fill="black"/>
<path d="M39.4247 102.137V95.5719C39.4247 94.5403 39.6531 93.6561 40.1099 92.9193C40.5815 92.1677 41.2078 91.593 41.9889 91.1951C42.7699 90.7825 43.632 90.5762 44.5752 90.5762C45.5331 90.5762 46.3952 90.7825 47.1615 91.1951C47.9426 91.593 48.5615 92.1677 49.0184 92.9193C49.4899 93.6561 49.7257 94.5403 49.7257 95.5719V102.137H48.1784V95.6382C48.1784 94.8572 48.0089 94.194 47.6699 93.6488C47.331 93.0888 46.8815 92.6614 46.3215 92.3667C45.7763 92.0719 45.1868 91.9246 44.5531 91.9246C43.9342 91.9246 43.352 92.0719 42.8068 92.3667C42.2615 92.6467 41.8194 93.0667 41.4805 93.6267C41.1415 94.1719 40.972 94.8424 40.972 95.6382V102.137H39.4247Z" fill="black"/>
<path d="M25.7166 102.137V95.5719C25.7166 94.5403 25.945 93.6561 26.4019 92.9193C26.8735 92.1677 27.4998 91.593 28.2808 91.1951C29.0619 90.7825 29.924 90.5762 30.8671 90.5762C31.825 90.5762 32.6871 90.7825 33.4535 91.1951C34.2345 91.593 34.8535 92.1677 35.3103 92.9193C35.7819 93.6561 36.0177 94.5403 36.0177 95.5719V102.137H34.4703V95.6382C34.4703 94.8572 34.3008 94.194 33.9619 93.6488C33.6229 93.0888 33.1735 92.6614 32.6135 92.3667C32.0682 92.0719 31.4787 91.9246 30.845 91.9246C30.2261 91.9246 29.644 92.0719 29.0987 92.3667C28.5535 92.6467 28.1113 93.0667 27.7724 93.6267C27.4335 94.1719 27.264 94.8424 27.264 95.6382V102.137H25.7166Z" fill="black"/>
<path d="M17.0539 102.424C15.9192 102.424 14.9097 102.167 14.0255 101.651C13.1413 101.12 12.4487 100.406 11.9476 99.5066C11.4466 98.6077 11.196 97.6056 11.196 96.5003C11.196 95.3951 11.4466 94.393 11.9476 93.494C12.4487 92.5951 13.1413 91.8877 14.0255 91.372C14.9097 90.8414 15.9192 90.5762 17.0539 90.5762C18.1887 90.5762 19.1908 90.8414 20.0603 91.372C20.9445 91.8877 21.6371 92.5951 22.1381 93.494C22.6539 94.3782 22.9118 95.3803 22.9118 96.5003C22.9118 97.6056 22.6539 98.6077 22.1381 99.5066C21.6371 100.406 20.9445 101.12 20.0603 101.651C19.1908 102.167 18.1887 102.424 17.0539 102.424ZM17.0539 101.076C17.8939 101.076 18.6381 100.877 19.2866 100.479C19.935 100.067 20.436 99.514 20.7897 98.8214C21.1581 98.1287 21.3424 97.355 21.3424 96.5003C21.3424 95.6456 21.1581 94.8719 20.7897 94.1793C20.436 93.4867 19.935 92.9414 19.2866 92.5435C18.6381 92.1309 17.8939 91.9246 17.0539 91.9246C16.1992 91.9246 15.4476 92.1309 14.7992 92.5435C14.1655 92.9414 13.6645 93.4867 13.296 94.1793C12.9424 94.8719 12.7655 95.6456 12.7655 96.5003C12.7655 97.355 12.9424 98.1287 13.296 98.8214C13.6645 99.514 14.1655 100.067 14.7992 100.479C15.4476 100.877 16.1992 101.076 17.0539 101.076Z" fill="black"/>
<path d="M8.07895 102.137C6.91474 102.137 5.87579 101.886 4.9621 101.385C4.04842 100.884 3.32632 100.214 2.79579 99.3737C2.26526 98.519 2 97.5611 2 96.5001C2 95.439 2.26526 94.4885 2.79579 93.6485C3.32632 92.7938 4.04842 92.1159 4.9621 91.6149C5.87579 91.1138 6.91474 90.8633 8.07895 90.8633H9.36105V92.2117H7.96842C7.15789 92.2117 6.42105 92.4033 5.75789 92.7864C5.09474 93.1548 4.56421 93.6633 4.16632 94.3117C3.76842 94.9601 3.56947 95.6895 3.56947 96.5001C3.56947 97.3106 3.76842 98.0401 4.16632 98.6885C4.56421 99.3369 5.09474 99.8527 5.75789 100.236C6.42105 100.604 7.15789 100.788 7.96842 100.788H9.36105V102.137H8.07895Z" fill="black"/>
</svg>
